<svg width="81" height="54" viewBox="0 0 81 54" fill="none" xmlns="http://www.w3.org/2000/svg">
<path d="M11.8893 54V12.276L2.61733 14.556L0.185328 4.98L15.4613 0.419997H23.4413V54H11.8893ZM78.3038 32.872V42.6H69.8678L67.9678 54H57.9358L59.8358 42.6H48.8918L46.9158 54H36.8838L38.7838 42.6H33.0838V32.872H40.4558L42.4318 21.624H35.7438V11.896H44.1038L46.0038 0.799996H56.0358L54.1358 11.896H65.1558L67.0558 0.799996H77.0878L75.1878 11.896H80.9638V21.624H73.5158L71.5398 32.872H78.3038ZM52.2358 21.32L50.2598 33.176H61.7358L63.7118 21.32H52.2358Z" fill="white"/>
</svg>
