<svg width="394" height="93" viewBox="0 0 394 93" fill="none" xmlns="http://www.w3.org/2000/svg">
<g clip-path="url(#clip0_4008_412)">
<path d="M140.529 84.1181C128.643 84.0179 122.998 82.6345 119.648 80.1507C116.297 77.6691 114.575 73.588 114.475 67.9053C114.418 64.6396 114.893 60.2644 115.902 54.7777L119.11 37.9278C120.238 32.049 121.759 27.2506 123.674 23.5282C125.587 19.8058 127.951 16.901 130.768 14.8092C133.583 12.7197 136.962 11.2494 140.902 10.4007C144.841 9.55195 149.632 9.12646 155.271 9.12646C160.198 9.12646 164.074 9.22448 166.896 9.42051C169.72 9.61655 172.207 10.14 174.361 10.9888C176.515 11.8375 178.193 13.2276 179.392 15.1523C180.592 17.0792 181.223 19.7412 181.28 23.1362C181.316 25.2279 181.13 27.6093 180.723 30.2869L179.918 34.3034H165.916L166.721 30.2869C167.02 28.7855 167.159 27.5447 167.143 26.5645C167.104 24.2144 166.104 22.7285 164.149 22.107C162.195 21.4877 158.46 21.1758 152.952 21.1758C149.126 21.1758 146.147 21.3875 144.016 21.8129C141.884 22.2384 140.146 23.0226 138.806 24.1631C137.464 25.3059 136.374 26.9388 135.536 29.0617C134.697 31.1847 133.888 34.1408 133.112 37.9278L129.99 54.1896C129.156 58.567 128.76 61.7659 128.796 63.7908C128.851 66.9251 129.89 69.0325 131.92 70.1084C133.948 71.1866 137.685 71.7257 143.131 71.7257C146.501 71.7257 148.242 71.6277 150.119 71.4317C151.994 71.2356 153.641 71.0351 155.057 70.3802C156.47 69.7275 157.635 68.8899 158.55 67.4197C159.464 65.9494 160.191 63.9089 160.729 61.2958L161.436 57.2794H175.438L174.549 62.08C173.6 67.1746 172.227 71.1911 170.432 74.1293C168.636 77.0676 166.436 79.4312 163.833 80.7678C161.231 82.1066 158.409 82.9887 155.371 83.412C152.33 83.8375 148.124 84.1827 142.36 84.1159" fill="#1D1D1B"/>
<path d="M248.388 83.8154H236.009L245.352 35.7672C245.794 33.495 247.771 31.8555 250.071 31.8555H258.493L248.39 83.8154H248.388Z" fill="#1D1D1B"/>
<path d="M308.196 66.8628C307.345 70.8213 306.133 73.9734 304.561 76.3147C302.989 78.6582 301.056 80.3735 298.765 81.4606C296.472 82.5499 293.951 83.2427 291.2 83.539C288.449 83.8353 284.878 83.9845 280.491 83.9845C273.154 83.9845 267.997 82.9798 265.017 80.966C262.036 78.9545 260.545 75.4415 260.545 70.4248C260.545 67.3239 261.136 63.0357 262.314 57.5579C263.36 52.4766 264.508 48.3198 265.753 45.0875C266.996 41.8552 268.667 39.1842 270.764 37.0702C272.86 34.9583 275.578 33.3923 278.919 32.3698C282.26 31.3473 286.517 30.835 291.691 30.835C299.289 30.835 304.561 31.775 307.508 33.6552C310.456 35.5353 311.929 38.9503 311.929 43.8979C311.929 47.3953 311.175 52.6749 309.669 59.7343H274.202C273.285 64.0894 272.827 67.0254 272.827 68.5424C272.827 70.7188 273.515 72.2537 274.89 73.1448C276.265 74.0358 278.786 74.4814 282.455 74.4814C286.711 74.4814 289.807 74.0692 291.738 73.245C293.668 72.4208 295.028 70.2934 295.815 66.8606H308.194L308.196 66.8628ZM298.962 51.1511C299.552 48.1817 299.846 46.6736 299.846 45.288C299.846 43.1762 299.159 41.824 297.783 41.2292C296.408 40.6344 293.721 40.3381 289.728 40.3381C286.977 40.3381 284.816 40.503 283.244 40.8327C281.672 41.1646 280.445 41.7415 279.56 42.5658C278.676 43.3922 277.972 44.4949 277.448 45.8805C276.924 47.2661 276.4 48.5782 275.876 51.1511H298.964H298.962Z" fill="#1D1D1B"/>
<path d="M353.861 46.5201C354.093 45.5911 354.71 43.8914 354.684 43.2254C354.637 42.0603 354.155 41.441 352.91 41.0178C351.665 40.5967 349.354 40.3539 345.978 40.296C341.871 40.2247 338.877 40.5388 337 41.2383C335.12 41.94 333.794 42.7241 333.024 45.8451C332.792 46.7762 332.668 47.5403 332.646 48.1396C332.597 49.5385 333.261 50.4519 334.638 50.8773C336.016 51.3028 339.083 51.657 343.844 51.9399L346.522 52.087C349.695 52.2763 352.189 52.4879 354.005 52.7196C355.818 52.9513 357.507 53.4325 359.073 54.1587C360.638 54.8871 361.857 55.9764 362.737 57.4244C363.615 58.8746 364.011 60.7993 363.929 63.1985C363.869 64.9338 363.568 66.8608 363.031 68.9859C362.184 72.3742 360.882 75.1031 359.119 77.1726C357.357 79.242 355.267 80.7925 352.846 81.815C350.425 82.8397 347.784 83.4946 344.925 83.7775C342.066 84.0605 338.716 84.1696 334.875 84.1006C330.968 84.0315 327.89 83.9112 325.645 83.7374C323.398 83.5637 321.393 83.1293 319.628 82.4298C317.864 81.7326 316.51 80.6232 315.568 79.1062C314.626 77.5891 314.2 75.5642 314.288 73.0291C314.35 71.2292 314.909 69.3156 315.526 66.8563L328.042 66.863C327.721 68.458 327.308 69.7233 327.292 70.6567C327.266 72.0467 327.839 72.8264 329.146 73.4167C330.45 74.0071 333.055 74.3368 336.962 74.4058C341.531 74.486 344.739 74.1585 346.588 73.4234C348.434 72.6905 349.744 71.8886 350.515 68.7654C350.823 67.5045 350.988 66.5712 351.011 65.9719C351.061 64.5061 350.288 63.4257 348.689 62.7285C347.088 62.0334 343.972 61.6124 339.339 61.4632C331.596 61.1936 326.322 60.4184 323.518 59.133C320.712 57.8499 319.374 55.4084 319.498 51.8085C319.557 50.0754 319.969 47.7475 320.734 44.8248C321.583 41.372 322.837 38.6431 324.497 36.636C326.158 34.6311 328.146 33.1987 330.461 32.3388C332.776 31.479 335.246 30.9555 337.871 30.7683C340.494 30.5812 343.893 30.5233 348.065 30.5968C351.11 30.6503 353.657 30.7795 355.705 30.9822C357.751 31.1849 359.708 31.6371 361.572 32.3366C363.436 33.0361 364.904 34.1299 365.981 35.6157C367.056 37.1038 367.551 39.0797 367.465 41.5457C367.418 42.8801 366.759 44.9963 366.377 46.5245L353.861 46.5178V46.5201Z" fill="#1D1D1B"/>
<path d="M379.726 83.8154H367.348L376.657 35.9388C377.119 33.5663 379.182 31.8555 381.582 31.8555H389.83L379.726 83.8154Z" fill="#1D1D1B"/>
<path d="M214.591 83.8379H226.773L233.21 50.0444C233.749 47.2086 234.008 44.2124 233.972 42.1652C233.906 38.3403 231.967 36.028 229.645 34.2793C227.321 32.5328 222.206 31.4858 216.968 31.4858C212.665 31.4858 207.015 31.0915 201.688 34.3372L206.617 8.97314H199.085C196.27 8.97314 193.847 10.9825 193.307 13.7648L179.692 83.8379H192.071L199.39 46.1594C201.29 38.9707 214.648 40.8709 216.769 40.9645C221.324 41.165 221.987 45.1591 221.755 46.7541" fill="#1D1D1B"/>
<path d="M105.071 46.1881L83.712 8.91943L74.4578 25.0855L81.8987 38.0638H62.2317C64.7791 40.2714 66.3535 43.2877 66.3535 46.6158C66.3535 49.9439 64.8388 52.8465 62.3754 55.043H81.8545L74.4711 67.9701L83.7054 84.1005L105.075 46.8118C105.186 46.618 105.186 46.3819 105.075 46.1881H105.071Z" fill="#B90066"/>
<path d="M69.3347 76.9253L69.3237 76.9453H34.4696L17.0426 46.5379L34.4696 16.1304H69.3237V16.1349L78.5601 0H30.3301C27.2188 0 24.3442 1.67297 22.7897 4.38625L1.16785 42.1138C-0.386678 44.827 -0.386678 48.1708 1.16785 50.884L22.8472 88.7118C24.3663 91.3627 27.1746 92.9978 30.2151 92.9978H78.538L69.3347 76.9231V76.9253Z" fill="#BBBCBB"/>
<path d="M51.9626 54.4215C56.2627 54.4215 59.7485 50.9098 59.7485 46.5779C59.7485 42.2461 56.2627 38.7344 51.9626 38.7344C47.6626 38.7344 44.1768 42.2461 44.1768 46.5779C44.1768 50.9098 47.6626 54.4215 51.9626 54.4215Z" fill="#B90066"/>
<path d="M258.866 21.921C262.209 19.9343 263.458 15.83 261.657 12.7539C259.855 9.67784 255.685 8.79478 252.342 10.7816C249 12.7683 247.75 16.8726 249.552 19.9487C251.353 23.0247 255.523 23.9078 258.866 21.921Z" fill="#1D1D1B"/>
<path d="M390.379 21.8136C393.722 19.8269 394.971 15.7226 393.17 12.6465C391.368 9.57042 387.198 8.68736 383.856 10.6741C380.513 12.6609 379.263 16.7651 381.065 19.8412C382.866 22.9173 387.037 23.8004 390.379 21.8136Z" fill="#1D1D1B"/>
</g>
<defs>
<clipPath id="clip0_4008_412">
<rect width="394" height="93" fill="white"/>
</clipPath>
</defs>
</svg>
