<svg width="67" height="93" viewBox="0 0 67 93" fill="none" xmlns="http://www.w3.org/2000/svg">
<path d="M65.3739 89.1566H35.1161V24.3838H48.9132L41.5208 42.8545H40.2838C39.3859 42.8545 38.6677 43.5861 38.6677 44.4881V44.9692C38.6677 52.2653 44.5736 58.1983 51.8462 58.1983C59.1188 58.1983 65.0147 52.2653 65.0147 44.9692V44.4881C65.0147 43.5861 64.2865 42.8545 63.3886 42.8545H62.0817L54.6894 24.3838H65.3739C66.2717 24.3838 67 23.6522 67 22.7502C67 21.8482 66.2717 21.1166 65.3739 21.1166H35.1161V1.6336C35.1161 0.731613 34.3879 0 33.49 0C32.5922 0 31.8639 0.731613 31.8639 1.6336V21.1266H1.62612C0.728261 21.1266 0 21.8582 0 22.7602C0 23.6622 0.728261 24.3938 1.62612 24.3938H10.2555L2.86316 42.8645H1.62612C0.728261 42.8645 0 43.5961 0 44.4981V44.9792C0 52.2753 5.9059 58.2084 13.1686 58.2084C20.4312 58.2084 26.3371 52.2753 26.3371 44.9792V44.4981C26.3371 43.5961 25.6088 42.8645 24.721 42.8645H23.4141L16.0217 24.3938H31.8739V89.1666H1.62612C0.728261 89.1666 0 89.8982 0 90.8002C0 91.7022 0.728261 92.4338 1.62612 92.4338H65.3839C66.2817 92.4338 67.01 91.7022 67.01 90.8002C67.01 89.8982 66.2817 89.1666 65.3839 89.1666M51.8462 54.9512C46.7583 54.9512 42.5484 51.0826 41.9798 46.1217H61.7026C61.134 51.0826 56.9241 54.9512 51.8362 54.9512M45.0225 42.8645L51.8063 25.9172L58.5901 42.8645H45.0225ZM13.1686 54.9512C8.0807 54.9512 3.87076 51.0826 3.30211 46.1217H23.025C22.4564 51.0826 18.2464 54.9512 13.1586 54.9512M6.34485 42.8645L13.1286 25.9172L19.9124 42.8645H6.35482H6.34485Z" fill="white"/>
</svg>
