<svg width="176" height="40" viewBox="0 0 176 40" fill="none" xmlns="http://www.w3.org/2000/svg">
<g clip-path="url(#clip0_4002_66)">
<path d="M62.7742 36.1799C57.4649 36.1368 54.9431 35.5418 53.4466 34.4735C51.9502 33.4061 51.1807 31.6508 51.1362 29.2066C51.1106 27.802 51.3229 25.9203 51.7734 23.5604L53.2066 16.3131C53.7104 13.7846 54.39 11.7208 55.2454 10.1197C56.0998 8.51869 57.1557 7.26929 58.4142 6.36961C59.6716 5.47088 61.1809 4.83851 62.9412 4.47347C64.7004 4.10842 66.8409 3.92542 69.3597 3.92542C71.5605 3.92542 73.2921 3.96757 74.5525 4.05189C75.8139 4.1362 76.9251 4.36136 77.8872 4.72641C78.8493 5.09146 79.599 5.68933 80.1344 6.51716C80.6707 7.34594 80.9523 8.49091 80.9779 9.9511C80.9937 10.8508 80.9108 11.875 80.729 13.0267L80.3695 14.7542H74.1149L74.4744 13.0267C74.6078 12.3809 74.67 11.8472 74.6631 11.4257C74.6453 10.4148 74.1988 9.77576 73.3256 9.50844C72.4525 9.24208 70.7841 9.10794 68.3235 9.10794C66.6147 9.10794 65.2842 9.19896 64.3319 9.38197C63.3797 9.56497 62.6033 9.90223 62.0047 10.3928C61.4052 10.8843 60.9182 11.5866 60.5438 12.4997C60.1694 13.4128 59.8079 14.6843 59.4612 16.3131L58.0665 23.3074C57.6941 25.1902 57.5173 26.566 57.5331 27.437C57.5578 28.7851 58.022 29.6915 58.9288 30.1542C59.8346 30.618 61.5039 30.8498 63.9368 30.8498C65.4422 30.8498 66.2196 30.8077 67.0582 30.7234C67.8958 30.639 68.6317 30.5528 69.2639 30.2711C69.8951 29.9904 70.4157 29.6301 70.8246 28.9978C71.2325 28.3654 71.5575 27.4878 71.7976 26.3639L72.1136 24.6364H78.3682L77.9712 26.7011C77.5474 28.8924 76.934 30.6199 76.1319 31.8837C75.3298 33.1474 74.347 34.164 73.1844 34.7389C72.0218 35.3147 70.7614 35.6941 69.4042 35.8762C68.046 36.0592 66.1672 36.2077 63.5921 36.179" fill="white"/>
<path d="M110.955 36.0497H105.425L109.599 15.3838C109.796 14.4065 110.679 13.7013 111.707 13.7013H115.469L110.956 36.0497H110.955Z" fill="white"/>
<path d="M137.671 28.7583C137.291 30.4609 136.75 31.8167 136.047 32.8237C135.345 33.8316 134.482 34.5694 133.458 35.0369C132.434 35.5055 131.308 35.8034 130.079 35.9309C128.85 36.0583 127.255 36.1225 125.295 36.1225C122.018 36.1225 119.715 35.6904 118.383 34.8242C117.052 33.959 116.386 32.4481 116.386 30.2904C116.386 28.9566 116.649 27.1122 117.176 24.7562C117.643 22.5707 118.156 20.7828 118.712 19.3926C119.267 18.0023 120.014 16.8535 120.95 15.9443C121.887 15.036 123.101 14.3624 124.593 13.9226C126.086 13.4828 127.987 13.2625 130.299 13.2625C133.693 13.2625 136.047 13.6668 137.364 14.4754C138.681 15.2841 139.339 16.7529 139.339 18.8809C139.339 20.3852 139.002 22.656 138.329 25.6923H122.486C122.076 27.5654 121.872 28.8282 121.872 29.4807C121.872 30.4168 122.179 31.077 122.793 31.4602C123.408 31.8435 124.534 32.0351 126.173 32.0351C128.074 32.0351 129.457 31.8579 130.319 31.5033C131.182 31.1488 131.789 30.2338 132.141 28.7573H137.67L137.671 28.7583ZM133.546 22.0006C133.81 20.7234 133.941 20.0748 133.941 19.4788C133.941 18.5705 133.634 17.9889 133.02 17.7331C132.406 17.4773 131.205 17.3498 129.421 17.3498C128.193 17.3498 127.228 17.4207 126.525 17.5625C125.823 17.7053 125.275 17.9535 124.88 18.308C124.485 18.6634 124.17 19.1377 123.936 19.7337C123.702 20.3296 123.468 20.894 123.234 22.0006H133.547H133.546Z" fill="white"/>
<path d="M158.07 20.0086C158.174 19.6091 158.449 18.878 158.437 18.5915C158.417 18.0904 158.201 17.8241 157.645 17.642C157.089 17.4609 156.057 17.3565 154.549 17.3316C152.714 17.3009 151.377 17.436 150.538 17.7369C149.699 18.0387 149.106 18.376 148.762 19.7183C148.658 20.1188 148.603 20.4474 148.593 20.7052C148.571 21.3069 148.868 21.6997 149.483 21.8827C150.099 22.0657 151.469 22.2181 153.595 22.3397L154.791 22.403C156.209 22.4844 157.323 22.5754 158.134 22.6751C158.944 22.7747 159.699 22.9817 160.398 23.294C161.097 23.6073 161.642 24.0759 162.035 24.6987C162.427 25.3224 162.604 26.1502 162.567 27.1821C162.541 27.9285 162.406 28.7573 162.166 29.6714C161.788 31.1287 161.206 32.3024 160.419 33.1925C159.632 34.0826 158.698 34.7495 157.617 35.1892C156.535 35.63 155.356 35.9117 154.078 36.0333C152.801 36.155 151.305 36.202 149.589 36.1723C147.843 36.1426 146.468 36.0908 145.466 36.0161C144.462 35.9414 143.566 35.7545 142.778 35.4537C141.99 35.1538 141.385 34.6766 140.965 34.0241C140.544 33.3717 140.353 32.5007 140.393 31.4104C140.42 30.6362 140.67 29.8132 140.946 28.7554L146.537 28.7583C146.393 29.4443 146.209 29.9885 146.202 30.39C146.19 30.9878 146.446 31.3232 147.03 31.5771C147.612 31.831 148.776 31.9728 150.521 32.0025C152.562 32.037 153.995 31.8961 154.821 31.58C155.646 31.2647 156.231 30.9198 156.575 29.5765C156.713 29.0342 156.787 28.6327 156.797 28.375C156.819 27.7446 156.474 27.2799 155.76 26.98C155.044 26.681 153.653 26.4999 151.583 26.4358C148.124 26.3198 145.768 25.9864 144.516 25.4335C143.262 24.8817 142.665 23.8316 142.72 22.2832C142.747 21.5378 142.93 20.5365 143.272 19.2795C143.651 17.7944 144.211 16.6207 144.953 15.7574C145.695 14.8951 146.583 14.279 147.617 13.9091C148.651 13.5393 149.755 13.3141 150.927 13.2337C152.099 13.1532 153.617 13.1283 155.481 13.1599C156.841 13.1829 157.979 13.2385 158.894 13.3256C159.807 13.4128 160.682 13.6073 161.514 13.9082C162.347 14.209 163.003 14.6795 163.484 15.3186C163.964 15.9586 164.185 16.8085 164.147 17.8691C164.126 18.443 163.832 19.3532 163.661 20.0105L158.07 20.0077V20.0086Z" fill="white"/>
<path d="M169.624 36.0497H164.094L168.253 15.4575C168.459 14.4371 169.381 13.7013 170.453 13.7013H174.137L169.624 36.0497Z" fill="white"/>
<path d="M95.8577 36.0593H101.299L104.175 21.5244C104.416 20.3047 104.531 19.016 104.516 18.1355C104.486 16.4904 103.62 15.4959 102.582 14.7437C101.544 13.9926 99.2596 13.5422 96.9195 13.5422C94.9973 13.5422 92.4735 13.3726 90.094 14.7686L92.2957 3.85938H88.9314C87.6739 3.85938 86.5913 4.72361 86.3503 5.92031L80.2686 36.0593H85.7981L89.0677 19.8534C89.9162 16.7616 95.8833 17.5788 96.8306 17.6191C98.8654 17.7053 99.1618 19.4232 99.0581 20.1093" fill="white"/>
<path d="M46.9351 19.8658L37.3942 3.8363L33.2604 10.7895L36.5842 16.3715H27.799C28.9369 17.321 29.6402 18.6184 29.6402 20.0498C29.6402 21.4813 28.9635 22.7297 27.8632 23.6744H36.5645L33.2663 29.2345L37.3912 36.1723L46.9371 20.1341C46.9865 20.0508 46.9865 19.9492 46.9371 19.8658H46.9351Z" fill="white"/>
<path d="M30.9725 33.0862L30.9676 33.0948H15.3983L7.61363 20.0163L15.3983 6.93783H30.9676V6.93974L35.0935 0H13.5492C12.1594 0 10.8753 0.719556 10.1809 1.88656L0.522391 18.1135C-0.172015 19.2805 -0.172015 20.7186 0.522391 21.8856L10.2065 38.1557C10.8851 39.2958 12.1396 39.9991 13.4978 39.9991H35.0837L30.9725 33.0852V33.0862Z" fill="white"/>
<path d="M23.2117 23.4071C25.1326 23.4071 26.6897 21.8967 26.6897 20.0335C26.6897 18.1703 25.1326 16.6599 23.2117 16.6599C21.2909 16.6599 19.7338 18.1703 19.7338 20.0335C19.7338 21.8967 21.2909 23.4071 23.2117 23.4071Z" fill="white"/>
<path d="M115.636 9.42838C117.129 8.57385 117.687 6.80858 116.882 5.48553C116.077 4.16248 114.215 3.78267 112.721 4.6372C111.228 5.49172 110.67 7.25699 111.475 8.58004C112.28 9.90309 114.142 10.2829 115.636 9.42838Z" fill="white"/>
<path d="M174.383 9.38224C175.876 8.52771 176.434 6.76244 175.629 5.43939C174.825 4.11634 172.962 3.73653 171.469 4.59106C169.975 5.44558 169.417 7.21085 170.222 8.5339C171.027 9.85694 172.89 10.2368 174.383 9.38224Z" fill="white"/>
</g>
<defs>
<clipPath id="clip0_4002_66">
<rect width="176" height="40" fill="white"/>
</clipPath>
</defs>
</svg>
