<svg width="192" height="123" viewBox="0 0 192 123" fill="none" xmlns="http://www.w3.org/2000/svg">
<mask id="path-1-inside-1_4008_391" fill="white">
<path fill-rule="evenodd" clip-rule="evenodd" d="M126.376 59.4996C122.538 83.8659 101.445 102.5 76 102.5C47.8335 102.5 25 79.6665 25 51.5C25 23.3335 47.8335 0.5 76 0.5C91.9332 0.5 106.16 7.80654 115.512 19.2518C120.506 11.5757 129.16 6.5 139 6.5C154.464 6.5 167 19.036 167 34.5C167 49.964 154.464 62.5 139 62.5C134.458 62.5 130.169 61.4187 126.376 59.4996Z"/>
</mask>
<path fill-rule="evenodd" clip-rule="evenodd" d="M126.376 59.4996C122.538 83.8659 101.445 102.5 76 102.5C47.8335 102.5 25 79.6665 25 51.5C25 23.3335 47.8335 0.5 76 0.5C91.9332 0.5 106.16 7.80654 115.512 19.2518C120.506 11.5757 129.16 6.5 139 6.5C154.464 6.5 167 19.036 167 34.5C167 49.964 154.464 62.5 139 62.5C134.458 62.5 130.169 61.4187 126.376 59.4996Z" fill="white"/>
<path d="M126.376 59.4996L127.279 57.715L124.828 56.4749L124.401 59.1883L126.376 59.4996ZM115.512 19.2518L113.963 20.5173L115.696 22.6373L117.189 20.3424L115.512 19.2518ZM124.401 59.1883C120.713 82.5974 100.445 100.5 76 100.5V104.5C102.445 104.5 124.362 85.1343 128.352 59.8108L124.401 59.1883ZM76 100.5C48.938 100.5 27 78.562 27 51.5H23C23 80.7711 46.7289 104.5 76 104.5V100.5ZM27 51.5C27 24.438 48.938 2.5 76 2.5V-1.5C46.7289 -1.5 23 22.2289 23 51.5H27ZM76 2.5C91.3076 2.5 104.975 9.51694 113.963 20.5173L117.061 17.9863C107.345 6.09614 92.5588 -1.5 76 -1.5V2.5ZM117.189 20.3424C121.829 13.2095 129.865 8.5 139 8.5V4.5C128.455 4.5 119.183 9.94197 113.836 18.1612L117.189 20.3424ZM139 8.5C153.359 8.5 165 20.1406 165 34.5H169C169 17.9315 155.569 4.5 139 4.5V8.5ZM165 34.5C165 48.8594 153.359 60.5 139 60.5V64.5C155.569 64.5 169 51.0685 169 34.5H165ZM139 60.5C134.779 60.5 130.799 59.4958 127.279 57.715L125.473 61.2842C129.54 63.3417 134.138 64.5 139 64.5V60.5Z" fill="#AF0061" mask="url(#path-1-inside-1_4008_391)"/>
<path d="M130.988 33.8C126.746 33.8 123.89 30.482 123.89 26.366V26.282C123.89 22.124 126.788 18.764 131.072 18.764C135.314 18.764 138.17 22.082 138.17 26.198V26.282C138.17 30.398 135.272 33.8 130.988 33.8ZM133.76 26.366V26.282C133.76 24.308 132.668 22.586 130.988 22.586C129.224 22.586 128.3 24.266 128.3 26.198V26.282C128.3 28.256 129.392 29.978 131.072 29.978C132.836 29.978 133.76 28.256 133.76 26.366ZM138.59 32.666L148.292 19.1H153.29L141.53 34.934L131.828 48.5H126.83L138.59 32.666ZM149.048 48.836C144.806 48.836 141.95 45.518 141.95 41.402V41.318C141.95 37.16 144.848 33.8 149.132 33.8C153.374 33.8 156.23 37.118 156.23 41.234V41.318C156.23 45.434 153.332 48.836 149.048 48.836ZM149.132 45.014C150.896 45.014 151.82 43.292 151.82 41.402V41.318C151.82 39.344 150.728 37.622 149.048 37.622C147.284 37.622 146.36 39.302 146.36 41.234V41.318C146.36 43.292 147.452 45.014 149.132 45.014Z" fill="#AF0061"/>
<path d="M52.936 66.908V55.388H41.352V46.556H52.936V35.036H62.024V46.556H73.608V55.388H62.024V66.908H52.936ZM92.7855 74.268C86.2575 74.268 81.8415 72.092 78.0655 68.956L83.2495 61.468C86.5135 64.092 89.2655 65.308 93.0415 65.308C98.5455 65.308 101.49 61.148 102.13 55.132C99.9535 56.988 96.9455 58.204 93.0415 58.204C83.3135 58.204 77.0415 52.828 77.0415 43.74V43.612C77.0415 34.588 84.0175 27.932 94.1295 27.932C100.146 27.932 103.666 29.404 107.058 32.796C110.258 35.996 112.37 40.86 112.37 49.692V49.82C112.37 64.348 105.522 74.268 92.7855 74.268ZM94.6415 50.012C99.5055 50.012 102.322 47.196 102.322 43.356V43.228C102.322 39.26 99.3775 36.38 94.4495 36.38C89.5855 36.38 86.8335 39.196 86.8335 43.164V43.292C86.8335 47.26 89.7775 50.012 94.6415 50.012Z" fill="#AF0061"/>
<rect width="192" height="36" transform="translate(0 86.5)" fill="#AF0061"/>
<path d="M11.4693 100.564L8.82931 91.924H11.2933L12.6693 97.124L14.2853 91.892H16.3813L18.0133 97.14L19.4213 91.924H21.8373L19.1653 100.564H16.9733L15.3253 95.3L13.6453 100.564H11.4693ZM22.9484 100.5V98.788L27.3804 93.892H23.0924V91.924H30.4044V93.636L25.9564 98.532H30.4044V100.5H22.9484ZM32.2521 100.5V91.924H34.6841V93.652C35.1801 92.468 35.9801 91.7 37.4201 91.764V94.308H37.2921C35.6761 94.308 34.6841 95.284 34.6841 97.332V100.5H32.2521ZM42.9132 100.692C40.2572 100.692 38.2892 98.724 38.2892 96.26V96.228C38.2892 93.764 40.2732 91.764 42.9452 91.764C45.6012 91.764 47.5692 93.732 47.5692 96.196V96.228C47.5692 98.692 45.5852 100.692 42.9132 100.692ZM42.9452 98.596C44.3372 98.596 45.1692 97.524 45.1692 96.26V96.228C45.1692 94.964 44.2572 93.86 42.9132 93.86C41.5212 93.86 40.6892 94.932 40.6892 96.196V96.228C40.6892 97.492 41.6012 98.596 42.9452 98.596ZM52.3382 100.66C51.1382 100.66 49.7942 100.26 48.6582 99.364L49.6982 97.764C50.6262 98.436 51.6022 98.788 52.4022 98.788C53.1062 98.788 53.4262 98.532 53.4262 98.148V98.116C53.4262 97.588 52.5942 97.412 51.6502 97.124C50.4502 96.772 49.0902 96.212 49.0902 94.548V94.516C49.0902 92.772 50.4982 91.796 52.2262 91.796C53.3142 91.796 54.4982 92.164 55.4262 92.788L54.4982 94.468C53.6502 93.972 52.8022 93.668 52.1782 93.668C51.5862 93.668 51.2822 93.924 51.2822 94.26V94.292C51.2822 94.772 52.0982 94.996 53.0262 95.316C54.2262 95.716 55.6182 96.292 55.6182 97.86V97.892C55.6182 99.796 54.1942 100.66 52.3382 100.66ZM60.1012 100.644C58.6132 100.644 57.6052 100.052 57.6052 98.068V94.004H56.5812V91.924H57.6052V89.732H60.0372V91.924H62.0532V94.004H60.0372V97.668C60.0372 98.228 60.2772 98.5 60.8212 98.5C61.2692 98.5 61.6692 98.388 62.0212 98.196V100.148C61.5092 100.452 60.9172 100.644 60.1012 100.644ZM72.8507 100.692C70.1947 100.692 68.2267 98.724 68.2267 96.26V96.228C68.2267 93.764 70.2107 91.764 72.8827 91.764C75.5387 91.764 77.5067 93.732 77.5067 96.196V96.228C77.5067 98.692 75.5227 100.692 72.8507 100.692ZM72.8827 98.596C74.2747 98.596 75.1067 97.524 75.1067 96.26V96.228C75.1067 94.964 74.1947 93.86 72.8507 93.86C71.4587 93.86 70.6267 94.932 70.6267 96.196V96.228C70.6267 97.492 71.5387 98.596 72.8827 98.596ZM87.8086 100.692C86.1766 100.692 85.0726 100.148 84.1286 99.364L85.4246 97.492C86.2406 98.148 86.9286 98.452 87.8726 98.452C89.2486 98.452 89.9846 97.412 90.1446 95.908C89.6006 96.372 88.8486 96.676 87.8726 96.676C85.4406 96.676 83.8726 95.332 83.8726 93.06V93.028C83.8726 90.772 85.6166 89.108 88.1446 89.108C89.6486 89.108 90.5286 89.476 91.3766 90.324C92.1766 91.124 92.7046 92.34 92.7046 94.548V94.58C92.7046 98.212 90.9926 100.692 87.8086 100.692ZM88.2726 94.628C89.4886 94.628 90.1926 93.924 90.1926 92.964V92.932C90.1926 91.94 89.4566 91.22 88.2246 91.22C87.0086 91.22 86.3206 91.924 86.3206 92.916V92.948C86.3206 93.94 87.0566 94.628 88.2726 94.628ZM96.9943 94.9C95.3783 94.9 94.2903 93.636 94.2903 92.068V92.036C94.2903 90.452 95.3943 89.172 97.0263 89.172C98.6423 89.172 99.7303 90.436 99.7303 92.004V92.036C99.7303 93.604 98.6263 94.9 96.9943 94.9ZM98.0503 92.068V92.036C98.0503 91.284 97.6343 90.628 96.9943 90.628C96.3223 90.628 95.9703 91.268 95.9703 92.004V92.036C95.9703 92.788 96.3863 93.444 97.0263 93.444C97.6983 93.444 98.0503 92.788 98.0503 92.068ZM99.8903 94.468L103.586 89.3H105.49L101.01 95.332L97.3143 100.5H95.4103L99.8903 94.468ZM103.874 100.628C102.258 100.628 101.17 99.364 101.17 97.796V97.764C101.17 96.18 102.274 94.9 103.906 94.9C105.522 94.9 106.61 96.164 106.61 97.732V97.764C106.61 99.332 105.506 100.628 103.874 100.628ZM103.906 99.172C104.578 99.172 104.93 98.516 104.93 97.796V97.764C104.93 97.012 104.514 96.356 103.874 96.356C103.202 96.356 102.85 96.996 102.85 97.732V97.764C102.85 98.516 103.266 99.172 103.906 99.172ZM115.157 100.564L112.517 91.924H114.981L116.357 97.124L117.973 91.892H120.069L121.701 97.14L123.109 91.924H125.525L122.853 100.564H120.661L119.013 95.3L117.333 100.564H115.157ZM131.495 100.5V98.548L135.223 95.492C136.615 94.34 137.159 93.732 137.159 92.804C137.159 91.86 136.535 91.348 135.655 91.348C134.791 91.348 134.199 91.828 133.367 92.852L131.639 91.46C132.743 89.956 133.815 89.14 135.815 89.14C138.135 89.14 139.671 90.5 139.671 92.596V92.628C139.671 94.5 138.711 95.428 136.727 96.964L134.903 98.372H139.783V100.5H131.495ZM146.504 100.692C143.512 100.692 141.544 98.18 141.544 94.932V94.9C141.544 91.652 143.56 89.108 146.536 89.108C149.496 89.108 151.496 91.62 151.496 94.868V94.9C151.496 98.148 149.496 100.692 146.504 100.692ZM146.536 98.468C148.024 98.468 148.968 96.964 148.968 94.932V94.9C148.968 92.868 147.976 91.332 146.504 91.332C145.032 91.332 144.072 92.82 144.072 94.868V94.9C144.072 96.948 145.048 98.468 146.536 98.468ZM152.995 100.5V98.548L156.723 95.492C158.115 94.34 158.659 93.732 158.659 92.804C158.659 91.86 158.035 91.348 157.155 91.348C156.291 91.348 155.699 91.828 154.867 92.852L153.139 91.46C154.243 89.956 155.315 89.14 157.315 89.14C159.635 89.14 161.171 90.5 161.171 92.596V92.628C161.171 94.5 160.211 95.428 158.227 96.964L156.403 98.372H161.283V100.5H152.995ZM165.028 100.5V91.716L163.076 92.196L162.564 90.18L165.78 89.22H167.46V100.5H165.028ZM174.815 100.5V91.924H177.247V93.652C177.743 92.468 178.543 91.7 179.983 91.764V94.308H179.855C178.239 94.308 177.247 95.284 177.247 97.332V100.5H174.815ZM179.969 100.5V97.94H182.561V100.5H179.969ZM3.50056 119.564L0.860563 110.924H3.32456L4.70056 116.124L6.31656 110.892H8.41256L10.0446 116.14L11.4526 110.924H13.8686L11.1966 119.564H9.00456L7.35656 114.3L5.67656 119.564H3.50056ZM20.1427 122.06V110.924H22.5747V112.156C23.1667 111.356 23.9827 110.764 25.2467 110.764C27.2467 110.764 29.1507 112.332 29.1507 115.196V115.228C29.1507 118.092 27.2787 119.66 25.2467 119.66C23.9507 119.66 23.1507 119.068 22.5747 118.38V122.06H20.1427ZM24.6227 117.596C25.7587 117.596 26.7187 116.668 26.7187 115.228V115.196C26.7187 113.772 25.7587 112.828 24.6227 112.828C23.4867 112.828 22.5427 113.772 22.5427 115.196V115.228C22.5427 116.652 23.4867 117.596 24.6227 117.596ZM35.1476 119.692C32.4916 119.692 30.5236 117.724 30.5236 115.26V115.228C30.5236 112.764 32.5076 110.764 35.1796 110.764C37.8356 110.764 39.8036 112.732 39.8036 115.196V115.228C39.8036 117.692 37.8196 119.692 35.1476 119.692ZM35.1796 117.596C36.5716 117.596 37.4036 116.524 37.4036 115.26V115.228C37.4036 113.964 36.4916 112.86 35.1476 112.86C33.7556 112.86 32.9236 113.932 32.9236 115.196V115.228C32.9236 116.492 33.8356 117.596 35.1796 117.596ZM41.5646 119.5V110.924H43.9966V112.652C44.4926 111.468 45.2926 110.7 46.7326 110.764V113.308H46.6046C44.9886 113.308 43.9966 114.284 43.9966 116.332V119.5H41.5646ZM52.2257 119.692C49.5697 119.692 47.6017 117.724 47.6017 115.26V115.228C47.6017 112.764 49.5857 110.764 52.2577 110.764C54.9137 110.764 56.8817 112.732 56.8817 115.196V115.228C56.8817 117.692 54.8977 119.692 52.2257 119.692ZM52.2577 117.596C53.6497 117.596 54.4817 116.524 54.4817 115.26V115.228C54.4817 113.964 53.5697 112.86 52.2257 112.86C50.8337 112.86 50.0017 113.932 50.0017 115.196V115.228C50.0017 116.492 50.9137 117.596 52.2577 117.596ZM51.2817 109.98L53.0577 107.148L55.1537 108.06L53.0737 109.98H51.2817ZM60.1724 119.564L57.5324 110.924H59.9964L61.3724 116.124L62.9884 110.892H65.0844L66.7164 116.14L68.1244 110.924H70.5404L67.8684 119.564H65.6764L64.0284 114.3L62.3484 119.564H60.1724ZM72.0177 119.5V110.924H74.4497V112.14C75.0097 111.42 75.7297 110.764 76.9617 110.764C78.8017 110.764 79.8737 111.98 79.8737 113.948V119.5H77.4417V114.716C77.4417 113.564 76.8977 112.972 75.9697 112.972C75.0417 112.972 74.4497 113.564 74.4497 114.716V119.5H72.0177ZM84.4184 119.66C82.8024 119.66 81.4744 118.732 81.4744 117.036V117.004C81.4744 115.132 82.8984 114.268 84.9304 114.268C85.7944 114.268 86.4184 114.412 87.0264 114.62V114.476C87.0264 113.468 86.4024 112.908 85.1864 112.908C84.2584 112.908 83.6024 113.084 82.8184 113.372L82.2104 111.516C83.1544 111.1 84.0824 110.828 85.5384 110.828C86.8664 110.828 87.8264 111.18 88.4344 111.788C89.0744 112.428 89.3624 113.372 89.3624 114.524V119.5H87.0104V118.572C86.4184 119.228 85.6024 119.66 84.4184 119.66ZM85.1544 117.98C86.2904 117.98 87.0584 117.356 87.0584 116.476V116.044C86.6424 115.852 86.0984 115.724 85.5064 115.724C84.4664 115.724 83.8264 116.14 83.8264 116.908V116.94C83.8264 117.596 84.3704 117.98 85.1544 117.98ZM91.4552 119.5V110.924H93.8872V112.14C94.4472 111.42 95.1672 110.764 96.3992 110.764C98.2392 110.764 99.3112 111.98 99.3112 113.948V119.5H96.8792V114.716C96.8792 113.564 96.3352 112.972 95.4072 112.972C94.4792 112.972 93.8872 113.564 93.8872 114.716V119.5H91.4552ZM101.472 109.98V107.82H104.032V109.98H101.472ZM101.536 119.5V110.924H103.968V119.5H101.536ZM109.1 119.66C107.26 119.66 106.188 118.444 106.188 116.476V110.924H108.62V115.708C108.62 116.86 109.164 117.452 110.092 117.452C111.02 117.452 111.612 116.86 111.612 115.708V110.924H114.044V119.5H111.612V118.284C111.052 119.004 110.332 119.66 109.1 119.66ZM120.73 119.5V117.788L125.162 112.892H120.874V110.924H128.186V112.636L123.738 117.532H128.186V119.5H120.73ZM134.526 119.5V117.548L138.254 114.492C139.646 113.34 140.19 112.732 140.19 111.804C140.19 110.86 139.566 110.348 138.686 110.348C137.822 110.348 137.23 110.828 136.398 111.852L134.67 110.46C135.774 108.956 136.846 108.14 138.846 108.14C141.166 108.14 142.702 109.5 142.702 111.596V111.628C142.702 113.5 141.742 114.428 139.758 115.964L137.934 117.372H142.814V119.5H134.526ZM149.535 119.692C146.543 119.692 144.575 117.18 144.575 113.932V113.9C144.575 110.652 146.591 108.108 149.567 108.108C152.527 108.108 154.527 110.62 154.527 113.868V113.9C154.527 117.148 152.527 119.692 149.535 119.692ZM149.567 117.468C151.055 117.468 151.999 115.964 151.999 113.932V113.9C151.999 111.868 151.007 110.332 149.535 110.332C148.063 110.332 147.103 111.82 147.103 113.868V113.9C147.103 115.948 148.079 117.468 149.567 117.468ZM156.026 119.5V117.548L159.754 114.492C161.146 113.34 161.69 112.732 161.69 111.804C161.69 110.86 161.066 110.348 160.186 110.348C159.322 110.348 158.73 110.828 157.898 111.852L156.17 110.46C157.274 108.956 158.346 108.14 160.346 108.14C162.666 108.14 164.202 109.5 164.202 111.596V111.628C164.202 113.5 163.242 114.428 161.258 115.964L159.434 117.372H164.314V119.5H156.026ZM171.035 119.692C168.043 119.692 166.075 117.18 166.075 113.932V113.9C166.075 110.652 168.091 108.108 171.067 108.108C174.027 108.108 176.027 110.62 176.027 113.868V113.9C176.027 117.148 174.027 119.692 171.035 119.692ZM171.067 117.468C172.555 117.468 173.499 115.964 173.499 113.932V113.9C173.499 111.868 172.507 110.332 171.035 110.332C169.563 110.332 168.603 111.82 168.603 113.868V113.9C168.603 115.948 169.579 117.468 171.067 117.468ZM182.783 119.5V110.924H185.215V112.652C185.711 111.468 186.511 110.7 187.951 110.764V113.308H187.823C186.207 113.308 185.215 114.284 185.215 116.332V119.5H182.783ZM187.937 119.5V116.94H190.529V119.5H187.937Z" fill="white"/>
</svg>
