<svg width="160" height="132" viewBox="0 0 160 132" fill="none" xmlns="http://www.w3.org/2000/svg">
<mask id="path-1-inside-1_4008_392" fill="white">
<path fill-rule="evenodd" clip-rule="evenodd" d="M121.602 68.0058C118.127 98.3956 92.3201 122 61 122C27.3106 122 0 94.6894 0 61C0 27.3106 27.3106 0 61 0C81.0779 0 98.8902 9.70025 110.006 24.6699C115.134 18.1714 123.08 14 132 14C147.464 14 160 26.536 160 42C160 57.464 147.464 70 132 70C128.326 70 124.817 69.2923 121.602 68.0058Z"/>
</mask>
<path fill-rule="evenodd" clip-rule="evenodd" d="M121.602 68.0058C118.127 98.3956 92.3201 122 61 122C27.3106 122 0 94.6894 0 61C0 27.3106 27.3106 0 61 0C81.0779 0 98.8902 9.70025 110.006 24.6699C115.134 18.1714 123.08 14 132 14C147.464 14 160 26.536 160 42C160 57.464 147.464 70 132 70C128.326 70 124.817 69.2923 121.602 68.0058Z" fill="white"/>
<path d="M121.602 68.0058L122.345 66.1489L119.913 65.1755L119.615 67.7786L121.602 68.0058ZM110.006 24.6699L108.4 25.8623L109.958 27.9598L111.576 25.9088L110.006 24.6699ZM119.615 67.7786C116.254 97.1699 91.2919 120 61 120V124C93.3484 124 120 99.6213 123.589 68.233L119.615 67.7786ZM61 120C28.4152 120 2 93.5848 2 61H-2C-2 95.7939 26.2061 124 61 124V120ZM2 61C2 28.4152 28.4152 2 61 2V-2C26.2061 -2 -2 26.2061 -2 61H2ZM61 2C80.4183 2 97.6456 11.3788 108.4 25.8623L111.612 23.4776C100.135 8.02169 81.7376 -2 61 -2V2ZM111.576 25.9088C116.341 19.8702 123.718 16 132 16V12C122.441 12 113.926 16.4725 108.436 23.4311L111.576 25.9088ZM132 16C146.359 16 158 27.6406 158 42H162C162 25.4315 148.569 12 132 12V16ZM158 42C158 56.3594 146.359 68 132 68V72C148.569 72 162 58.5685 162 42H158ZM132 68C128.585 68 125.328 67.3425 122.345 66.1489L120.859 69.8626C124.306 71.2421 128.067 72 132 72V68Z" fill="#AF0061" mask="url(#path-1-inside-1_4008_392)"/>
<path d="M123.988 41.3C119.746 41.3 116.89 37.982 116.89 33.866V33.782C116.89 29.624 119.788 26.264 124.072 26.264C128.314 26.264 131.17 29.582 131.17 33.698V33.782C131.17 37.898 128.272 41.3 123.988 41.3ZM126.76 33.866V33.782C126.76 31.808 125.668 30.086 123.988 30.086C122.224 30.086 121.3 31.766 121.3 33.698V33.782C121.3 35.756 122.392 37.478 124.072 37.478C125.836 37.478 126.76 35.756 126.76 33.866ZM131.59 40.166L141.292 26.6H146.29L134.53 42.434L124.828 56H119.83L131.59 40.166ZM142.048 56.336C137.806 56.336 134.95 53.018 134.95 48.902V48.818C134.95 44.66 137.848 41.3 142.132 41.3C146.374 41.3 149.23 44.618 149.23 48.734V48.818C149.23 52.934 146.332 56.336 142.048 56.336ZM142.132 52.514C143.896 52.514 144.82 50.792 144.82 48.902V48.818C144.82 46.844 143.728 45.122 142.048 45.122C140.284 45.122 139.36 46.802 139.36 48.734V48.818C139.36 50.792 140.452 52.514 142.132 52.514Z" fill="#AF0061"/>
<path d="M12.2 67.832V58.488H31.912V67.832H12.2ZM49.973 83.768C43.445 83.768 39.029 81.592 35.253 78.456L40.437 70.968C43.701 73.592 46.453 74.808 50.229 74.808C55.733 74.808 58.677 70.648 59.317 64.632C57.141 66.488 54.133 67.704 50.229 67.704C40.501 67.704 34.229 62.328 34.229 53.24V53.112C34.229 44.088 41.205 37.432 51.317 37.432C57.333 37.432 60.853 38.904 64.245 42.296C67.445 45.496 69.557 50.36 69.557 59.192V59.32C69.557 73.848 62.709 83.768 49.973 83.768ZM51.829 59.512C56.693 59.512 59.509 56.696 59.509 52.856V52.728C59.509 48.76 56.565 45.88 51.637 45.88C46.773 45.88 44.021 48.696 44.021 52.664V52.792C44.021 56.76 46.965 59.512 51.829 59.512ZM91.836 83.768C79.868 83.768 71.996 73.72 71.996 60.728V60.6C71.996 47.608 80.06 37.432 91.964 37.432C103.804 37.432 111.804 47.48 111.804 60.472V60.6C111.804 73.592 103.804 83.768 91.836 83.768ZM91.964 74.872C97.916 74.872 101.692 68.856 101.692 60.728V60.6C101.692 52.472 97.724 46.328 91.836 46.328C85.948 46.328 82.108 52.28 82.108 60.472V60.6C82.108 68.792 86.012 74.872 91.964 74.872Z" fill="#AF0061"/>
<rect width="146" height="36" transform="translate(7 96)" fill="#AF0061"/>
<path d="M11.2523 110.16C10.0523 110.16 8.70825 109.76 7.57225 108.864L8.61225 107.264C9.54025 107.936 10.5163 108.288 11.3163 108.288C12.0203 108.288 12.3403 108.032 12.3403 107.648V107.616C12.3403 107.088 11.5083 106.912 10.5643 106.624C9.36425 106.272 8.00425 105.712 8.00425 104.048V104.016C8.00425 102.272 9.41225 101.296 11.1403 101.296C12.2283 101.296 13.4123 101.664 14.3403 102.288L13.4123 103.968C12.5643 103.472 11.7163 103.168 11.0923 103.168C10.5003 103.168 10.1963 103.424 10.1963 103.76V103.792C10.1963 104.272 11.0123 104.496 11.9403 104.816C13.1403 105.216 14.5323 105.792 14.5323 107.36V107.392C14.5323 109.296 13.1083 110.16 11.2523 110.16ZM10.2603 100.48L12.0363 97.648L14.1323 98.56L12.0523 100.48H10.2603ZM16.3875 110V98.32H18.8195V110H16.3875ZM23.5356 110.16C21.9196 110.16 20.5916 109.232 20.5916 107.536V107.504C20.5916 105.632 22.0156 104.768 24.0476 104.768C24.9116 104.768 25.5356 104.912 26.1436 105.12V104.976C26.1436 103.968 25.5196 103.408 24.3036 103.408C23.3756 103.408 22.7196 103.584 21.9356 103.872L21.3276 102.016C22.2716 101.6 23.1996 101.328 24.6556 101.328C25.9836 101.328 26.9436 101.68 27.5516 102.288C28.1916 102.928 28.4796 103.872 28.4796 105.024V110H26.1276V109.072C25.5356 109.728 24.7196 110.16 23.5356 110.16ZM24.2716 108.48C25.4076 108.48 26.1756 107.856 26.1756 106.976V106.544C25.7596 106.352 25.2156 106.224 24.6236 106.224C23.5836 106.224 22.9436 106.64 22.9436 107.408V107.44C22.9436 108.096 23.4876 108.48 24.2716 108.48ZM34.0924 110.16C32.0924 110.16 30.1884 108.592 30.1884 105.728V105.696C30.1884 102.832 32.0604 101.264 34.0924 101.264C35.3884 101.264 36.1884 101.856 36.7644 102.544V98.32H39.1964V110H36.7644V108.768C36.1724 109.568 35.3564 110.16 34.0924 110.16ZM34.7164 108.096C35.8524 108.096 36.7964 107.152 36.7964 105.728V105.696C36.7964 104.272 35.8524 103.328 34.7164 103.328C33.5804 103.328 32.6204 104.256 32.6204 105.696V105.728C32.6204 107.152 33.5804 108.096 34.7164 108.096ZM44.2173 110.16C42.3773 110.16 41.3053 108.944 41.3053 106.976V101.424H43.7373V106.208C43.7373 107.36 44.2812 107.952 45.2093 107.952C46.1373 107.952 46.7293 107.36 46.7293 106.208V101.424H49.1613V110H46.7293V108.784C46.1693 109.504 45.4493 110.16 44.2173 110.16ZM58.0709 110.064L55.4309 101.424H57.8949L59.2709 106.624L60.8869 101.392H62.9829L64.6149 106.64L66.0229 101.424H68.4389L65.7669 110.064H63.5749L61.9269 104.8L60.2469 110.064H58.0709ZM71.4779 105.04H75.1419C74.9979 103.952 74.3579 103.216 73.3339 103.216C72.3259 103.216 71.6699 103.936 71.4779 105.04ZM76.1019 109.584C75.6059 110.048 75.3659 110.48 75.3659 110.816C75.3659 111.36 75.7819 111.584 76.4859 111.552V112.624C74.6459 112.88 73.6219 112.192 73.6219 111.36C73.6219 110.976 73.8139 110.576 74.1339 110.16C73.9899 110.176 73.7339 110.192 73.5739 110.192C70.9979 110.192 69.0939 108.384 69.0939 105.76V105.728C69.0939 103.28 70.8379 101.264 73.3339 101.264C76.1979 101.264 77.5099 103.488 77.5099 105.92C77.5099 106.112 77.4939 106.336 77.4779 106.56H71.5099C71.7499 107.664 72.5179 108.24 73.6059 108.24C74.4219 108.24 75.0139 107.984 75.6859 107.36L77.0779 108.592C76.7259 108.992 76.4699 109.248 76.1019 109.584ZM83.1624 112.592C81.7704 112.592 80.4584 112.272 79.3704 111.696L80.2024 109.872C81.0824 110.368 81.9624 110.656 83.0984 110.656C84.7624 110.656 85.5464 109.856 85.5464 108.32V107.904C84.8264 108.768 84.0424 109.296 82.7464 109.296C80.7464 109.296 78.9384 107.84 78.9384 105.296V105.264C78.9384 102.704 80.7784 101.264 82.7464 101.264C84.0744 101.264 84.8584 101.824 85.5144 102.544V101.424H87.9464V108.064C87.9464 109.6 87.5784 110.72 86.8584 111.44C86.0584 112.24 84.8264 112.592 83.1624 112.592ZM83.4504 107.28C84.6344 107.28 85.5464 106.464 85.5464 105.296V105.264C85.5464 104.096 84.6344 103.28 83.4504 103.28C82.2664 103.28 81.3704 104.096 81.3704 105.264V105.296C81.3704 106.48 82.2664 107.28 83.4504 107.28ZM90.2313 110V98.32H92.6633V110H90.2313ZM99.1554 110.192C96.4994 110.192 94.5314 108.224 94.5314 105.76V105.728C94.5314 103.264 96.5154 101.264 99.1874 101.264C101.843 101.264 103.811 103.232 103.811 105.696V105.728C103.811 108.192 101.827 110.192 99.1554 110.192ZM99.1874 108.096C100.579 108.096 101.411 107.024 101.411 105.76V105.728C101.411 104.464 100.499 103.36 99.1554 103.36C97.7634 103.36 96.9314 104.432 96.9314 105.696V105.728C96.9314 106.992 97.8434 108.096 99.1874 108.096ZM107.102 110.064L104.462 101.424H106.926L108.302 106.624L109.918 101.392H112.014L113.646 106.64L115.054 101.424H117.47L114.798 110.064H112.606L110.958 104.8L109.278 110.064H107.102ZM122.605 110.192C120.029 110.192 118.125 108.384 118.125 105.76V105.728C118.125 103.28 119.869 101.264 122.365 101.264C125.229 101.264 126.541 103.488 126.541 105.92C126.541 106.112 126.525 106.336 126.509 106.56H120.541C120.781 107.664 121.549 108.24 122.637 108.24C123.453 108.24 124.045 107.984 124.717 107.36L126.109 108.592C125.309 109.584 124.157 110.192 122.605 110.192ZM120.509 105.04H124.173C124.029 103.952 123.389 103.216 122.365 103.216C121.357 103.216 120.701 103.936 120.509 105.04ZM132.194 112.592C130.802 112.592 129.49 112.272 128.402 111.696L129.234 109.872C130.114 110.368 130.994 110.656 132.13 110.656C133.794 110.656 134.578 109.856 134.578 108.32V107.904C133.858 108.768 133.074 109.296 131.778 109.296C129.778 109.296 127.97 107.84 127.97 105.296V105.264C127.97 102.704 129.81 101.264 131.778 101.264C133.106 101.264 133.89 101.824 134.546 102.544V101.424H136.978V108.064C136.978 109.6 136.61 110.72 135.89 111.44C135.09 112.24 133.858 112.592 132.194 112.592ZM132.482 107.28C133.666 107.28 134.578 106.464 134.578 105.296V105.264C134.578 104.096 133.666 103.28 132.482 103.28C131.298 103.28 130.402 104.096 130.402 105.264V105.296C130.402 106.48 131.298 107.28 132.482 107.28ZM143.359 110.192C140.703 110.192 138.735 108.224 138.735 105.76V105.728C138.735 103.264 140.719 101.264 143.391 101.264C146.047 101.264 148.015 103.232 148.015 105.696V105.728C148.015 108.192 146.031 110.192 143.359 110.192ZM143.391 108.096C144.783 108.096 145.615 107.024 145.615 105.76V105.728C145.615 104.464 144.703 103.36 143.359 103.36C141.967 103.36 141.135 104.432 141.135 105.696V105.728C141.135 106.992 142.047 108.096 143.391 108.096ZM36.9083 131.56V120.424H39.3403V121.656C39.9323 120.856 40.7483 120.264 42.0123 120.264C44.0123 120.264 45.9163 121.832 45.9163 124.696V124.728C45.9163 127.592 44.0443 129.16 42.0123 129.16C40.7163 129.16 39.9163 128.568 39.3403 127.88V131.56H36.9083ZM41.3883 127.096C42.5243 127.096 43.4843 126.168 43.4843 124.728V124.696C43.4843 123.272 42.5243 122.328 41.3883 122.328C40.2523 122.328 39.3083 123.272 39.3083 124.696V124.728C39.3083 126.152 40.2523 127.096 41.3883 127.096ZM47.7052 129V120.424H50.1372V122.152C50.6332 120.968 51.4332 120.2 52.8732 120.264V122.808H52.7452C51.1292 122.808 50.1372 123.784 50.1372 125.832V129H47.7052ZM58.3663 129.192C55.7103 129.192 53.7423 127.224 53.7423 124.76V124.728C53.7423 122.264 55.7263 120.264 58.3983 120.264C61.0543 120.264 63.0223 122.232 63.0223 124.696V124.728C63.0223 127.192 61.0383 129.192 58.3663 129.192ZM58.3983 127.096C59.7903 127.096 60.6223 126.024 60.6223 124.76V124.728C60.6223 123.464 59.7103 122.36 58.3663 122.36C56.9743 122.36 56.1423 123.432 56.1423 124.696V124.728C56.1423 125.992 57.0543 127.096 58.3983 127.096ZM68.3033 129.16C66.3033 129.16 64.3993 127.592 64.3993 124.728V124.696C64.3993 121.832 66.2713 120.264 68.3033 120.264C69.5993 120.264 70.3993 120.856 70.9753 121.544V117.32H73.4073V129H70.9753V127.768C70.3833 128.568 69.5673 129.16 68.3033 129.16ZM68.9273 127.096C70.0633 127.096 71.0073 126.152 71.0073 124.728V124.696C71.0073 123.272 70.0633 122.328 68.9273 122.328C67.7913 122.328 66.8313 123.256 66.8313 124.696V124.728C66.8313 126.152 67.7913 127.096 68.9273 127.096ZM78.4282 129.16C76.5882 129.16 75.5162 127.944 75.5162 125.976V120.424H77.9482V125.208C77.9482 126.36 78.4922 126.952 79.4202 126.952C80.3482 126.952 80.9402 126.36 80.9402 125.208V120.424H83.3722V129H80.9402V127.784C80.3802 128.504 79.6602 129.16 78.4282 129.16ZM85.5489 129V117.32H87.9809V123.544L90.8289 120.424H93.7409L90.4769 123.8L93.8529 129H91.0689L88.8289 125.496L87.9809 126.392V129H85.5489ZM97.7574 129.144C96.2694 129.144 95.2614 128.552 95.2614 126.568V122.504H94.2374V120.424H95.2614V118.232H97.6934V120.424H99.7094V122.504H97.6934V126.168C97.6934 126.728 97.9334 127 98.4774 127C98.9254 127 99.3254 126.888 99.6774 126.696V128.648C99.1654 128.952 98.5734 129.144 97.7574 129.144ZM105.476 129.192C102.82 129.192 100.852 127.224 100.852 124.76V124.728C100.852 122.264 102.836 120.264 105.508 120.264C108.164 120.264 110.132 122.232 110.132 124.696V124.728C110.132 127.192 108.148 129.192 105.476 129.192ZM105.508 127.096C106.9 127.096 107.732 126.024 107.732 124.76V124.728C107.732 123.464 106.82 122.36 105.476 122.36C104.084 122.36 103.252 123.432 103.252 124.696V124.728C103.252 125.992 104.164 127.096 105.508 127.096ZM104.532 119.48L106.308 116.648L108.404 117.56L106.324 119.48H104.532ZM113.422 129.064L110.782 120.424H113.246L114.622 125.624L116.238 120.392H118.334L119.966 125.64L121.374 120.424H123.79L121.118 129.064H118.926L117.278 123.8L115.598 129.064H113.422Z" fill="white"/>
</svg>
