<svg width="405" height="97" viewBox="0 0 405 97" fill="none" xmlns="http://www.w3.org/2000/svg">
<g clip-path="url(#clip0_2005_109)">
<path d="M27.4387 11.6525H46.5287L72.8361 51.4978V11.6525H92.8234V90.8869H74.8777L47.426 49.3472V90.8869H27.4387V11.6525Z" fill="#BBBBBA"/>
<path d="M104.462 11.6525H158.884V29.418H124.67V42.5564H155.503V59.4226H124.67V73.0041H159.339V90.8869H104.462V11.6525Z" fill="#BBBBBA"/>
<path d="M184.749 29.8742H165.204V11.6525H224.724V29.8742H205.075V90.8869H184.749V29.8742Z" fill="#BBBBBA"/>
<path d="M270.993 78.4655C271.305 78.4655 271.461 78.4655 271.461 77.9963C271.305 78.4655 270.993 77.9963 270.993 78.4655ZM272.241 0.938485C271.929 1.09489 270.837 0.938485 270.68 0.312847C271.461 0.312847 271.617 0.938485 272.241 0.938485ZM269.133 77.8529C269.601 78.6349 271.006 79.2606 271.786 78.9478C270.85 78.6349 270.069 78.0093 269.133 77.8529ZM267.573 13.2297C266.948 13.3861 266.636 13.5425 266.324 14.0117C266.948 14.0117 267.104 13.5425 267.573 13.2297ZM266.168 77.0708C266.636 77.8529 267.885 77.6965 268.977 78.0093C268.821 77.0708 267.104 77.5401 266.168 77.0708ZM266.636 76.758C266.636 76.6016 266.324 76.4452 266.012 76.6016V76.758H266.636ZM266.012 0.938485H265.856V1.2513H266.012V0.938485ZM264.92 85.9471C265.076 85.9471 265.076 86.4163 265.232 85.9471C265.232 85.9471 264.92 85.7907 264.92 85.9471ZM264.92 15.263C265.388 15.1066 265.7 14.4809 266.012 14.3245C266.012 14.1681 266.324 14.1681 266.012 14.3245C265.388 14.3245 265.076 14.7938 264.92 15.263ZM264.764 15.263C264.139 15.263 264.139 15.8886 263.983 16.045C264.295 16.045 264.764 15.8886 264.764 15.263ZM263.359 16.6576H263.515L263.827 16.3448V16.1884H263.515C263.515 16.1884 263.515 16.3448 263.359 16.1884V16.6576ZM263.047 85.4779C262.891 85.9471 263.827 85.9471 263.515 85.7907C263.359 85.7907 263.359 85.4779 263.047 85.4779ZM263.047 17.7525C262.579 17.7525 262.423 17.9089 262.423 18.0653C262.579 18.2217 263.047 18.2217 263.047 17.7525ZM262.111 18.5215C262.267 18.5215 262.267 18.8343 262.267 18.5215C262.267 18.5215 262.111 18.2087 262.111 18.5215ZM262.423 75.8196C263.827 75.8196 262.111 75.976 261.643 75.8196C261.955 75.5067 262.267 75.5067 262.423 75.8196ZM261.955 76.4452C261.331 75.976 261.018 76.4452 260.394 76.1324C260.394 75.8196 261.331 75.8196 260.394 75.6632C260.394 75.1939 260.706 75.1939 261.174 75.1939C261.018 76.6016 261.955 75.5068 261.955 76.4452ZM259.783 0.469256H259.627V0.938485H259.783V0.469256ZM259.627 20.0856C259.627 20.3984 259.471 20.5549 259.627 20.7113C259.783 20.5549 260.095 20.3984 259.627 20.0856ZM259.783 75.6632C259.627 75.6632 259.627 75.5067 259.315 75.5067C259.315 75.1939 260.251 75.1939 259.783 75.6632ZM260.095 75.8196C259.783 76.1324 259.159 76.4452 258.847 75.8196C259.471 75.6632 259.627 75.976 260.095 75.8196ZM258.847 75.0375C258.847 75.1939 258.691 75.1939 258.691 75.1939C258.691 75.0375 258.847 75.1939 258.847 75.0375ZM258.535 76.1324C258.535 75.976 258.691 75.8196 258.535 75.8196C258.535 75.976 258.379 75.976 258.535 76.1324ZM258.847 21.0241C258.535 21.0241 258.223 21.4933 258.535 21.6497C258.535 21.3369 258.847 21.4933 258.847 21.0241ZM257.598 77.3837H257.442V77.6965H257.598V77.3837ZM257.91 75.8196C257.91 75.976 256.974 75.976 257.442 75.6632C257.598 75.6632 257.598 75.8196 257.91 75.8196ZM258.223 21.6367C257.91 21.4803 256.818 22.2623 257.442 22.5751C257.598 22.4187 257.91 21.9495 258.223 21.6367ZM257.286 75.1939C256.818 75.1939 256.818 75.0375 256.506 75.0375C256.35 74.8811 257.442 74.8811 257.286 75.1939ZM257.286 75.8196C257.286 75.976 256.35 75.976 256.506 75.6632C256.974 75.6632 256.974 75.8196 257.286 75.8196ZM256.818 0.938485C256.818 0.782075 256.818 0.469256 256.506 0.469256L256.35 0.782075C256.506 0.782075 256.506 0.938485 256.818 0.938485ZM256.506 75.8196C256.038 75.976 256.038 75.6632 256.038 75.5067C256.35 75.5067 256.506 75.6632 256.506 75.8196ZM256.506 22.888H256.038V23.2008H256.506V22.888ZM255.726 1.09489V0.469256H255.414C255.414 0.782075 255.466 0.990621 255.57 1.09489H255.726ZM254.946 74.8941C255.102 74.8941 255.414 75.0506 255.57 75.0506C255.57 75.207 254.789 75.207 254.946 74.8941ZM255.726 75.6632C255.57 75.8196 254.633 76.1324 254.633 75.5067C254.946 75.5067 255.57 75.5067 255.726 75.6632ZM254.789 0.469256C254.633 0.782075 254.165 0.469256 254.165 0.938485C254.633 0.938485 254.633 0.782075 254.789 0.469256ZM254.165 75.8196C254.009 75.6632 253.697 75.6632 253.697 75.1939C254.009 75.1939 254.165 75.5067 254.165 75.8196ZM253.541 0.469256V1.2513C254.165 1.2513 254.165 0.469256 253.541 0.469256ZM253.541 23.67C253.541 23.8264 253.229 23.8264 253.073 23.8264C253.073 23.67 253.229 23.67 253.541 23.67ZM253.541 1.2513C253.541 0.938485 253.229 0.782075 253.073 0.469256C253.073 0.938485 252.917 0.938485 252.605 1.09489C253.073 1.09489 253.073 1.2513 253.541 1.2513ZM252.306 75.0375C252.15 74.7247 252.93 74.8811 253.086 74.8811C253.086 75.0375 252.93 75.1939 252.306 75.0375ZM252.15 75.6632C252.306 75.0375 253.086 75.5067 253.242 75.6632C253.086 75.976 252.618 75.5067 252.15 75.6632ZM252.917 26.1595C252.293 26.1595 252.137 26.1595 252.137 26.3159C252.293 26.3159 253.073 26.4723 252.917 26.1595ZM251.681 75.0375H251.369C251.213 75.0375 251.213 74.8811 251.213 74.7247C251.681 74.7247 251.681 74.8811 251.681 75.0375ZM250.745 0.938485C250.745 1.09489 250.901 1.2513 251.057 1.2513C251.057 1.09489 250.901 0.938485 250.745 0.938485ZM250.277 28.1798C250.901 28.1798 251.057 27.5542 251.369 27.085C251.369 26.4593 252.15 27.3978 251.369 27.085C251.057 27.5542 250.277 27.5542 250.277 28.1798ZM252.917 24.7518C251.981 25.5339 251.044 26.1595 250.264 26.6157C250.888 25.6773 251.981 25.0647 252.917 24.7518ZM249.497 75.6632C249.965 75.0375 251.057 75.6632 251.838 75.1939C251.682 75.976 249.965 75.5067 249.497 75.6632ZM249.809 28.4926C249.341 28.4926 249.341 28.8055 249.185 28.9619C249.497 28.9619 249.809 28.9619 249.809 28.4926ZM249.809 27.5542C249.185 27.5542 249.029 28.0234 248.561 28.1798C248.248 27.5542 249.965 27.085 249.497 26.3159C249.965 26.4723 249.965 26.6288 250.277 26.6288C250.121 27.098 249.809 27.098 249.809 27.5672M249.029 29.1183H248.561C248.561 29.2747 248.404 29.2747 248.404 29.4311C248.561 29.4311 249.185 29.4311 249.029 29.1183ZM248.561 75.5067C248.561 75.6632 248.404 75.6632 248.248 75.6632C248.248 75.5067 248.404 75.5067 248.561 75.5067ZM248.092 27.5542C248.248 27.3978 248.248 27.085 248.561 27.085C249.029 27.5542 248.404 27.5542 248.092 27.5542ZM247.936 75.0375C247.936 74.7247 248.248 74.7247 248.561 74.7247C248.561 74.8811 248.404 75.1939 247.936 75.0375ZM247.936 28.8055V28.3362C248.04 28.3362 248.092 28.2841 248.092 28.1798C248.404 28.1798 248.248 28.9619 247.936 28.8055ZM247.936 75.8196C247.936 75.6632 247.468 75.6632 247.156 75.6632C247.156 75.5067 248.248 75.1939 247.936 75.8196ZM249.809 1.09489C248.561 1.09489 247.468 0.782075 246.376 1.2513C247.624 1.72053 249.029 1.87694 249.809 1.09489ZM247.156 75.6632C247 75.976 246.532 75.5067 246.22 75.6632C245.596 75.1939 247 75.6632 246.688 75.1939C247 75.1939 247 75.6632 247.156 75.6632ZM246.22 74.8941C246.22 75.0506 245.752 75.0506 245.596 75.0506C245.752 74.8941 246.064 74.8941 246.22 74.8941ZM245.752 30.2001H245.596C245.752 30.3565 245.752 30.2001 245.752 30.2001ZM245.752 76.6016C245.44 76.6016 245.44 76.4452 245.283 76.758C245.44 76.9144 245.752 76.9144 245.752 76.6016ZM245.44 75.0375C245.283 75.1939 245.283 75.0375 245.127 75.0375C245.127 74.8811 245.44 74.8811 245.44 75.0375ZM245.127 30.8257C245.283 30.6693 245.283 30.2001 245.596 30.2001C245.596 30.6693 245.596 30.9822 245.127 30.8257ZM248.248 30.0437C248.248 29.8873 248.248 29.7309 248.092 29.4181C247.156 30.3565 246.064 31.2819 245.127 32.2204C246.22 32.064 247.156 30.3565 248.248 30.0437ZM244.659 75.8196C244.659 75.5067 245.283 75.5067 245.596 75.5067C245.596 75.976 245.127 75.6632 244.659 75.8196ZM244.503 31.295C244.503 30.9822 244.659 30.8257 245.127 30.8257C245.127 31.1386 244.919 31.295 244.503 31.295ZM244.347 76.6016C244.503 76.6016 244.503 76.9144 244.659 76.6016C244.659 76.6016 244.347 76.4452 244.347 76.6016ZM243.892 75.0375C243.892 74.8811 244.36 74.8811 244.516 74.8811C244.36 75.0375 244.36 75.1939 243.892 75.0375ZM243.892 75.8196C243.58 75.8196 243.892 75.1939 244.36 75.5067C244.36 75.8196 244.204 75.6632 243.892 75.8196ZM243.892 32.077H243.736V31.9206H243.892V32.077ZM243.268 76.758C243.424 76.758 243.58 76.758 243.58 76.6016C243.424 76.758 243.268 76.6016 243.268 76.758ZM243.58 75.0375H243.268V74.8811H243.58V75.0375ZM244.191 33.0024C243.567 33.4717 242.943 33.7845 242.631 34.0973C243.411 33.9409 243.879 33.7845 244.191 33.0024ZM242.644 74.8941C242.644 74.8941 242.488 74.8941 242.488 75.0506C242.488 74.8941 242.644 75.0506 242.644 74.8941ZM242.8 77.6965C242.956 77.3837 242.332 77.3837 242.488 77.5401C242.488 77.5401 242.644 77.5401 242.488 77.6965H242.8ZM241.707 75.8196C242.019 75.1939 243.268 75.1939 243.424 75.8196C242.644 75.6632 242.332 75.976 241.707 75.8196ZM241.707 35.505H241.863C241.863 35.505 241.863 35.3486 242.019 35.3486V34.8794H241.707V35.505ZM241.707 33.9409C241.707 33.4717 242.8 32.7027 243.58 32.2334C242.956 33.0155 242.332 33.4847 241.707 33.9409ZM241.551 35.505H241.083C241.083 35.6093 240.979 35.7135 240.771 35.8178C241.395 35.8178 241.551 35.8178 241.551 35.505ZM241.551 75.6632C241.083 75.8196 240.771 75.976 240.459 75.976V75.6632H241.551ZM240.147 35.9612C239.991 36.5868 241.083 36.5868 240.771 35.9612C240.771 35.8048 241.083 35.9612 240.771 35.9612H240.147ZM240.147 75.1939H239.991V75.0375H240.147V75.1939ZM244.503 1.2513C242.943 2.03335 241.07 1.72053 239.978 2.65899C241.382 2.8154 241.85 1.87694 242.631 2.34617C243.411 1.40771 245.596 2.65899 246.376 1.2513C245.752 1.72053 245.283 1.2513 244.659 1.72053C244.659 1.40771 244.659 1.2513 244.503 1.2513ZM238.742 77.3837C238.742 77.0708 239.055 76.9144 239.055 76.758C238.95 76.758 238.898 76.7059 238.898 76.6016C238.742 76.6016 238.586 76.758 238.586 76.9144C238.742 76.9144 238.586 77.0708 238.742 77.3837ZM238.898 36.274C238.742 36.274 238.586 36.4304 238.586 36.5868C238.742 36.5868 238.898 36.4304 238.898 36.274ZM238.586 36.5868H238.274C238.586 36.7432 238.586 36.5868 238.586 36.5868ZM237.962 75.5067C237.806 75.0375 238.274 75.1939 238.586 75.0375C238.586 75.5067 238.274 75.5067 237.962 75.5067ZM238.118 75.976H237.806V75.8196C237.962 75.6632 238.118 75.8196 238.118 75.976ZM237.65 75.5067H237.182V75.0375H237.65V75.5067ZM237.182 37.3689C237.65 37.2125 237.806 36.7432 238.274 36.5868C238.118 37.2125 237.65 37.6817 237.182 37.3689ZM239.835 36.8997C238.898 37.2125 237.338 38.4637 236.87 39.3892C238.118 38.6071 239.055 37.5253 239.835 36.8997ZM236.246 76.4452L236.09 76.1324V75.8196C236.246 75.8196 236.246 76.1324 236.246 76.4452ZM236.09 3.27159C236.09 3.27159 236.246 3.27159 236.246 3.11518C236.246 3.11518 236.09 3.11518 236.09 3.27159ZM235.465 40.484C235.465 40.1712 236.246 40.6404 235.465 40.484C235.309 40.6404 235.465 40.6404 235.465 40.484ZM235.322 75.5067C235.322 75.6632 235.166 75.6632 235.166 75.6632C235.166 75.5067 235.322 75.5067 235.322 75.5067ZM235.777 3.58441C235.777 3.11518 235.777 2.95878 235.465 2.80237C235.465 3.11518 235.153 3.11518 235.153 3.58441H235.777ZM235.322 75.8196V76.4452H235.01V75.976C235.114 75.976 235.166 75.9238 235.166 75.8196H235.322ZM236.714 38.1509C236.246 38.6202 235.777 39.4022 234.997 39.5456C235.309 38.7635 235.934 38.2943 236.714 38.1509ZM233.918 76.4452C233.918 76.6016 233.918 76.4452 233.606 76.4452C233.606 76.1324 233.918 76.1324 233.918 76.4452ZM233.606 77.3837C233.45 77.5401 232.982 77.3837 232.982 77.6965C233.45 77.6965 233.45 77.5401 233.606 77.3837ZM232.982 76.6016H232.669V76.4452H232.982V76.6016ZM234.074 41.8787C233.45 41.8787 233.294 42.5043 232.669 42.8171C233.45 42.5043 233.918 42.3479 234.074 41.8787ZM232.201 75.6632C232.513 75.6632 232.669 75.6632 232.982 75.8196C232.982 75.6632 233.294 75.6632 233.294 75.5067C234.23 75.8196 232.201 76.6016 232.201 75.6632ZM232.513 40.9533C232.513 41.1097 232.357 40.9533 232.201 40.9533C232.357 40.6404 232.513 40.6404 232.513 40.9533ZM232.201 42.0351C232.097 42.1394 231.941 42.1915 231.733 42.1915C231.733 42.1915 232.045 42.0351 232.201 42.0351ZM231.421 76.6016C231.577 76.4452 232.045 76.4452 232.201 76.6016C232.045 76.758 231.733 76.6016 231.421 76.6016ZM231.109 77.6965C231.265 77.6965 231.421 77.6965 231.421 77.5401C231.421 77.5401 231.109 77.5401 231.109 77.6965ZM231.265 43.13C230.797 42.8171 231.265 42.1915 231.733 42.1915C231.733 42.8171 231.421 42.8171 231.265 43.13ZM230.797 78.7783C231.109 78.7783 231.265 78.7783 231.265 78.6219C231.109 78.6219 230.797 78.6219 230.797 78.7783ZM231.109 75.8196C231.109 76.1324 230.485 76.1324 230.641 76.758C229.861 76.758 230.485 76.4452 230.329 75.8196H231.109ZM229.705 44.2118C229.705 43.899 230.173 44.0554 229.861 43.7426C230.641 43.4298 230.329 44.3682 229.705 44.2118ZM229.861 75.8196C229.705 76.6016 230.173 76.758 229.861 77.0708C229.392 76.758 229.705 76.6016 229.392 75.8196H229.861ZM230.641 4.21005C230.485 4.83569 229.549 4.52287 229.392 4.9921C229.861 4.9921 231.109 4.83569 230.641 4.21005ZM228.924 46.2451C229.392 46.2451 229.549 46.0887 229.549 45.9323H229.705C229.861 45.7759 229.861 45.3067 229.549 45.1503V45.9323C229.132 45.9323 228.924 46.0366 228.924 46.2451ZM228.768 76.4452C228.612 76.6016 228.612 76.4452 228.456 76.4452C228.456 76.1324 228.768 76.1324 228.768 76.4452ZM228.3 46.7144C228.456 46.5579 228.612 46.7144 228.612 46.5579C228.456 46.5579 228.3 46.5579 228.3 46.7144ZM228.3 77.0708C227.988 76.758 228.456 76.758 228.612 76.758C228.612 76.9144 228.456 77.0708 228.3 77.0708ZM227.676 45.7759C228.3 45.3067 228.612 44.681 229.549 44.3812C228.924 45.0069 228.612 45.6325 227.676 45.7759ZM227.52 76.758C227.52 76.9144 227.676 77.0708 227.676 77.0708C227.676 77.3837 227.364 77.3837 227.052 77.3837C227.052 76.9144 227.364 76.9144 227.364 76.758H227.52ZM226.909 48.109C227.377 48.109 227.533 47.9526 227.533 47.6398C227.845 47.6398 228.001 47.1705 228.313 47.0141C227.845 47.0141 227.533 47.1705 227.533 47.6398C227.377 47.6398 227.065 47.7962 226.909 48.109ZM227.364 46.5579H226.896V46.0887H227.364V46.5579ZM225.972 77.3837V76.9144C226.597 76.758 226.597 77.6965 225.972 77.3837ZM226.441 5.6047H225.972V5.91752H226.441V5.6047ZM225.972 46.7144C225.972 47.0272 225.816 47.0272 225.66 47.0272C225.66 46.7144 225.816 47.0272 225.972 46.7144ZM226.128 47.4834C225.816 47.6398 225.816 48.4218 225.036 48.4218C225.036 47.7962 225.816 47.6398 226.128 47.4834ZM225.036 48.4218H224.88C225.036 48.5782 225.036 48.4218 225.036 48.4218ZM225.036 77.3837H224.724V77.0708H225.036V77.3837ZM223.32 51.2242V51.537C223.632 51.537 223.632 51.3806 223.632 51.2242C224.1 50.5985 225.504 50.2857 225.036 49.6731C224.256 49.8295 224.1 50.6116 223.632 51.2242H223.32ZM223.632 49.3603C224.1 49.6731 223.32 49.9859 223.007 49.9859C223.007 49.5167 223.632 49.8295 223.632 49.3603ZM223.007 49.9729C223.007 50.1814 222.955 50.2857 222.851 50.2857L223.007 49.9729ZM224.568 77.3837C224.256 77.8529 223.163 78.4785 222.695 77.8529C222.383 77.3837 223.788 78.0093 223.632 77.3837C223.944 77.6965 224.256 77.0708 224.568 77.3837ZM222.383 52.319C222.071 52.319 221.915 52.6319 221.759 53.1011C222.227 53.1011 222.383 52.6318 222.383 52.319ZM221.759 50.4421C221.759 50.2857 221.915 50.2857 222.071 49.8165C222.383 49.9729 222.071 50.5985 221.759 50.4421ZM222.071 77.9963C221.863 78.3091 221.551 78.3091 221.135 77.9963C221.447 77.6834 221.915 77.8399 222.071 77.527C222.227 77.6834 222.071 77.8399 222.071 77.9963ZM220.979 53.2444C221.135 53.2444 221.447 53.2444 221.447 53.088C221.135 53.2444 220.979 53.088 220.979 53.2444ZM220.823 53.7137C220.355 53.5573 219.886 54.1829 220.355 54.3393C220.199 54.0265 220.979 54.1829 220.823 53.7137ZM221.135 77.9963C220.979 78.6219 220.355 78.6219 220.043 78.7783V77.9963C220.511 78.4655 220.511 77.9963 221.135 77.9963ZM219.574 79.8732C219.574 79.8732 219.886 79.8732 219.886 79.7168C219.886 79.8732 219.574 79.7168 219.574 79.8732ZM219.574 55.1214C219.886 54.965 220.043 54.965 220.043 54.4957H219.574V55.1214ZM219.418 4.21005C220.042 4.21005 220.042 4.67928 219.886 4.9921C219.574 4.67928 219.262 4.83569 219.418 4.21005ZM219.262 53.7137H219.106C219.106 53.2444 219.574 53.088 220.199 52.7752C220.043 53.2445 219.574 53.5573 219.262 53.7137ZM218.95 78.9347C218.95 78.6219 219.262 78.6219 219.574 78.4655C219.574 78.7783 219.262 78.9347 218.95 78.9347ZM219.574 55.2647C219.262 55.1083 218.638 55.5776 219.106 55.5776C219.106 55.4212 219.574 55.5776 219.574 55.2647ZM218.027 55.4342C217.559 55.2778 218.027 54.3393 218.339 54.4957C218.339 54.965 218.027 55.1214 218.027 55.4342ZM217.559 80.6552V80.186C217.247 80.186 217.091 80.3424 216.778 80.4988C217.247 80.4988 217.091 80.8116 217.559 80.6552ZM216.622 57.4545H216.466V57.7673H216.622V57.4545ZM217.091 55.4342C217.247 56.2162 216.154 56.9852 215.374 57.2981C215.686 56.3596 216.622 56.2032 217.091 55.4342ZM215.53 58.3799C215.53 59.0055 215.218 58.8491 215.218 59.1619C215.53 59.3184 215.842 58.8491 215.53 58.3799ZM215.374 57.7673C214.906 57.7673 215.218 58.0801 214.75 57.9237C214.594 57.4545 214.906 57.2981 215.374 57.2981V57.7673ZM213.97 60.2568C213.97 60.2568 214.282 60.2568 214.282 60.1004C214.282 60.2568 213.97 60.1004 213.97 60.2568ZM213.97 58.8491V58.3799C214.282 58.3799 214.438 58.2235 214.438 58.0671C214.906 58.2235 214.438 58.8491 214.282 59.0055L213.97 58.8491ZM213.814 59.0055C213.814 59.1619 213.657 59.1619 213.345 59.1619C213.345 59.0055 213.657 59.0055 213.814 59.0055ZM212.721 61.6515C212.721 61.5472 212.669 61.4951 212.565 61.4951V61.8079L212.721 61.6515ZM212.565 60.5696C212.097 60.5696 211.941 60.8825 211.785 61.1953C212.097 61.1953 212.565 61.0389 212.565 60.5696C212.669 60.5696 212.721 60.4654 212.721 60.2568C212.929 60.2568 213.137 60.2047 213.345 60.1004C213.033 60.1004 212.825 60.1525 212.721 60.2568L212.565 60.5696ZM211.941 61.9643C211.941 62.4335 211.005 62.7463 211.473 63.0592C211.629 62.9027 212.565 62.4335 211.941 61.9643ZM211.473 80.7986C211.473 81.1114 211.161 81.2678 211.473 81.2678C211.473 81.2678 211.629 81.1114 211.473 80.7986ZM210.693 81.2678C210.537 81.1114 210.068 81.4242 210.068 81.7371C210.536 81.7371 210.693 81.7371 210.693 81.2678ZM210.224 64.2974C210.224 63.9846 210.536 63.9846 210.536 63.9846C210.224 63.9846 210.224 63.8282 210.068 63.8282V64.2974H210.224ZM209.912 64.2974C209.132 64.2974 209.132 64.7666 209.756 64.7666C209.756 64.6102 209.912 64.6102 209.912 64.2974ZM208.989 64.7666C208.989 64.923 208.365 65.3923 208.833 65.5487C208.833 65.3923 209.769 64.923 208.989 64.7666ZM208.677 80.6552C208.365 81.1245 209.145 81.2809 209.145 80.8116C208.989 80.8116 208.989 80.6552 208.677 80.6552ZM208.209 65.5487C208.053 65.8615 208.053 66.3307 208.677 66.1743C208.677 65.7051 208.365 65.7051 208.209 65.5487ZM208.365 80.6552H208.053V81.1245H208.365V80.6552ZM207.116 66.7869V67.2561C207.429 67.569 207.429 66.6305 207.116 66.7869ZM207.429 65.7051C207.116 65.7051 206.804 66.1743 207.116 66.3307C207.272 66.1743 207.429 65.8615 207.429 65.7051ZM205.088 67.569C205.244 67.569 205.4 67.4126 205.4 67.2561C205.244 67.2561 205.088 67.4126 205.088 67.569ZM204.62 67.2561C204.62 66.6305 204.932 66.3177 205.4 66.3177C205.4 67.0997 205.088 67.2561 204.62 67.2561ZM204.62 67.4126C204.62 67.569 204.464 67.569 204.308 67.569C204.308 67.4126 204.464 67.4126 204.62 67.4126ZM204.308 68.9766C204.203 68.9766 204.099 68.8724 203.995 68.6638C204.151 68.6638 204.151 68.5074 204.308 68.5074V68.9766ZM203.371 68.6638V68.1946C203.995 68.0382 203.995 68.9766 203.371 68.6638ZM206.18 68.5074C205.088 68.6638 204.151 70.2149 203.215 71.1534C204.308 71.1534 205.088 69.2895 206.18 68.5074ZM203.215 71.3098C202.747 71.3098 202.747 71.9354 202.591 71.9354C203.059 71.9354 203.215 71.779 203.215 71.3098ZM201.811 70.2149C201.811 69.9021 202.279 69.9021 202.435 69.4328C202.747 69.5892 202.279 70.2149 201.811 70.2149ZM201.811 72.8608C201.811 73.1736 200.874 73.33 201.499 73.6429C201.499 73.33 202.435 73.1736 201.811 72.8608ZM199.327 76.4452C199.015 76.1324 198.703 76.758 199.015 76.758C199.015 76.6016 199.327 76.6016 199.327 76.4452ZM198.859 76.9144C198.703 76.9144 198.391 76.9144 198.547 77.3837C198.703 77.3837 198.859 77.0708 198.859 76.9144ZM196.83 77.9963C196.986 77.8399 197.142 77.9963 197.142 77.8399C196.986 77.8399 196.83 77.8399 196.83 77.9963ZM210.224 80.7986C210.693 80.7986 210.849 80.6422 210.849 80.4858C212.097 80.3294 212.877 80.173 213.345 79.3909C213.97 80.173 214.906 79.7037 215.218 78.9217C215.53 79.5473 216.31 79.2345 216.622 78.7653C216.778 78.7653 216.778 78.9217 216.778 79.2345C217.559 78.9217 218.339 78.6089 218.651 78.6089C218.651 79.3909 218.027 79.5473 217.247 79.2345C215.374 79.8601 213.97 80.173 211.954 80.7856C228.937 76.732 245.765 74.086 266.025 77.3576C265.245 76.4191 262.904 76.8884 262.124 75.9629C263.216 76.4322 263.84 76.1193 265.089 76.5886C265.401 76.5886 265.089 75.9629 264.777 76.1194C265.089 75.6501 265.713 76.4322 265.401 76.5886C266.181 75.9629 267.742 76.5886 268.21 77.0578C267.898 77.0578 267.742 76.745 266.961 76.745C267.273 77.527 268.834 77.0578 268.99 77.0578C269.77 77.3706 270.082 77.6834 270.707 77.8399C273.827 77.9963 276.935 81.2678 278.184 84.2266C277.872 85.165 278.184 85.3214 278.028 86.2469C277.248 86.7161 276.155 87.1853 275.375 86.7161C274.751 86.7161 275.687 87.0289 275.219 87.0289C273.19 86.7161 269.458 86.8725 266.025 85.934C265.869 85.934 266.025 86.4033 265.869 86.4033C258.548 85.152 251.382 86.2469 243.905 86.4033C243.437 86.2469 243.593 86.8725 243.281 86.8725C229.418 87.0289 217.104 91.5387 203.553 95.4359C203.397 95.5923 203.241 95.5923 203.241 96.0616C202.149 95.7487 201.369 96.5308 200.276 97C199.34 97 198.404 96.5308 196.843 96.5308C196.687 95.7487 195.283 94.6669 195.127 94.8233C194.971 94.3541 194.658 93.7285 193.722 93.7285C192.942 90.6133 194.19 86.8855 192.786 83.1447C193.098 82.3627 193.254 81.4373 194.19 81.1245C194.19 81.4373 193.41 81.4373 194.034 81.7501C194.658 81.2809 195.283 80.4988 195.127 79.7298C194.815 80.199 194.658 80.6683 194.346 81.1375H194.19C194.346 79.7298 195.127 79.2736 196.063 78.9608V77.7095C196.843 78.648 197.155 76.4582 197.623 75.6892C197.936 75.6892 197.936 75.8456 197.623 76.002C199.028 75.22 199.496 73.3561 200.744 72.7305V73.0433C200.276 73.0433 200.276 73.3561 200.276 73.8253C199.964 73.8253 199.964 73.9818 199.964 74.1382C200.276 74.1382 200.276 73.9818 200.276 73.8253C200.588 73.6689 200.744 73.6689 200.744 73.0433C201.213 73.1997 201.213 72.4177 200.744 72.7305C200.744 72.1048 201.213 72.1048 200.9 71.4792C201.837 71.792 202.149 71.3228 202.149 70.8536C202.461 70.5407 202.461 71.1664 202.617 71.1664C203.085 70.8536 203.241 70.5407 203.241 69.9151H203.709C203.553 69.4459 203.553 69.2895 203.709 68.6638C204.021 68.9766 204.021 69.1331 204.021 69.4459C204.177 69.2895 204.334 69.1331 204.334 68.9766C204.646 68.351 205.426 68.0382 206.05 67.2692C206.206 67.2692 206.362 67.2692 206.362 67.1128C206.518 66.7999 206.83 66.6435 206.83 66.3307C206.362 66.3307 206.518 66.7999 206.362 67.1128C206.206 67.1128 206.05 67.1128 206.05 67.2692H205.426C205.894 66.6435 206.362 66.6435 206.206 65.7181C206.986 65.8745 207.767 64.7797 208.235 64.3235C208.703 64.7927 207.455 64.7927 207.767 65.5747C208.391 64.9491 209.015 64.4799 209.327 63.7109C209.171 63.398 209.015 63.8673 208.859 64.0237C208.703 63.398 210.107 62.7724 210.576 61.847C211.044 62.1598 210.263 62.4726 210.263 62.9418C211.044 62.7854 211.2 62.0034 211.668 61.6906C211.512 61.0649 211.2 62.0034 210.888 61.6906C211.668 60.9085 212.448 59.9831 213.384 59.3575V59.8267C213.853 59.6703 214.477 59.6703 214.321 59.0446C214.789 58.8882 215.413 58.419 215.413 57.7934C216.661 57.1677 217.598 55.9295 218.69 54.991C218.69 54.5218 218.69 54.3654 218.378 54.5218C218.534 54.209 218.534 53.7397 219.158 53.7397C218.534 55.2908 220.251 53.4269 220.563 53.1141C220.875 52.8013 220.407 52.8013 220.251 52.8013C220.563 52.1757 221.187 51.4066 222.123 50.9374C222.123 51.7195 221.187 51.7195 221.187 52.3451C221.031 52.3451 221.031 52.5015 221.031 52.5015C221.135 52.5015 221.187 52.4494 221.187 52.3451C224.932 49.0735 228.82 45.6456 232.409 42.0742C232.565 42.2306 232.722 42.0742 232.722 42.0742C232.565 41.605 232.409 41.9178 232.409 42.0742H232.253C232.253 41.4486 233.502 40.6796 233.658 41.2922C233.346 41.2922 233.034 41.4486 233.034 41.605C233.034 41.9178 233.658 41.605 233.658 41.2922C234.126 41.1357 234.438 40.9793 234.594 40.5101C234.906 40.5101 235.062 40.3537 235.062 40.1973C234.906 40.0409 234.594 40.0409 234.594 40.5101C234.386 40.5101 234.23 40.5622 234.126 40.6665C233.346 40.3537 234.906 40.0409 235.062 39.5716V40.0409C237.247 38.3334 239.744 36.9257 240.823 34.1234C241.447 34.1234 241.603 34.4362 241.759 34.4362C243.476 32.8721 245.349 31.321 247.208 29.77C247.208 29.4572 246.74 29.77 246.74 29.3008C248.3 29.77 248.613 28.2059 249.861 27.5933C251.421 26.342 253.294 25.1038 254.685 23.5397C254.529 23.2268 254.061 24.3217 253.593 24.1653C253.749 23.6961 254.217 23.2268 254.842 22.914V23.5397C255.466 23.6961 255.154 22.914 255.622 22.7576C255.622 22.6012 255.622 22.4448 255.154 22.4448C255.622 22.2884 255.934 21.8192 256.558 21.6628C256.558 22.2884 255.778 21.9756 255.778 22.4448C257.494 21.8192 259.367 20.4245 260.459 18.704C261.708 17.922 262.488 17.922 263.112 16.8401C260.771 18.0914 259.211 20.4245 256.571 21.6628C259.536 18.704 262.488 16.9965 265.297 14.0378C266.857 13.4121 267.794 12.1739 269.185 11.2354C269.029 11.079 269.029 10.7662 268.717 10.7662C269.185 10.4534 269.653 9.67135 270.433 9.51494C269.965 9.51494 269.497 9.20212 269.185 9.20212C267.781 8.57648 265.44 8.57648 263.424 8.57648C257.039 8.57648 252.046 9.20212 245.817 9.82776C238.963 11.079 232.11 12.4737 226.024 13.0993C225.556 13.2557 225.712 12.6301 225.088 12.6301C222.123 13.4121 221.187 10.7662 220.095 9.20212C220.563 8.26367 219.314 6.7126 219.626 5.14851C219.834 5.14851 219.938 5.09637 219.938 4.9921C220.407 4.9921 220.563 4.83569 221.187 4.83569C221.499 5.46133 220.563 4.9921 220.407 5.46133C224.919 5.93056 229.444 3.28463 234.269 2.8154C234.269 3.12822 234.113 3.12822 234.113 3.59745C233.333 3.59745 233.021 3.28463 232.396 4.06668C232.552 4.22309 233.957 4.22309 234.113 3.59745C234.425 3.28463 234.425 3.91027 234.893 3.59745C235.205 3.28463 234.425 3.28463 234.581 2.8154C234.893 2.65899 235.517 2.8154 235.83 2.34617C235.986 2.34617 235.986 2.65899 235.986 2.8154C236.454 2.65899 236.454 2.03335 237.702 2.03335C236.922 3.59745 238.95 2.8154 239.887 2.8154C239.887 2.65899 239.575 2.65899 239.731 2.03335C239.263 2.34617 238.794 2.34617 238.638 2.8154C238.17 2.8154 238.17 2.34617 238.17 2.03335C243.931 0.938485 249.393 0.48229 255.778 0.0130615C255.882 0.117335 255.934 0.273744 255.934 0.48229C256.09 0.325881 256.402 0.169471 256.558 0.0130615C262.631 0.169471 267.781 0.0130615 273.229 2.03335C273.541 1.87694 272.293 1.2513 272.761 1.2513C275.726 3.89723 278.522 6.69957 279.77 10.7532C279.926 13.3991 278.99 14.8068 278.522 16.8271C276.181 19.7858 273.854 22.5882 270.576 24.7649C270.42 25.2341 269.796 25.2341 269.796 25.7033C268.86 25.5469 268.236 27.111 267.612 27.111C247.663 43.4558 227.572 59.6442 210.276 78.4916C210.276 79.2736 209.808 79.2736 209.808 79.7428C209.184 79.7428 208.872 79.7428 208.872 80.2121C208.872 80.5249 209.34 80.5249 209.34 81.1505C209.808 80.6813 210.276 79.8992 210.901 80.3685V80.5249C210.589 80.3685 210.276 80.5249 210.276 80.8377" fill="#87AC89"/>
<path d="M328.029 52.7752C328.029 52.6188 328.341 52.6188 328.029 52.7752C327.873 52.7752 328.029 53.0881 328.029 52.7752ZM318.679 56.9853C318.523 57.1417 318.679 57.1417 318.679 56.9853C318.887 56.9853 318.991 56.9331 318.991 56.8289C318.679 56.8289 318.679 56.9853 318.679 56.9853ZM313.841 61.8079H313.685C313.685 61.6515 313.841 61.6515 313.841 61.8079ZM308.393 68.0382C308.393 68.0382 308.705 68.0382 308.705 67.7254C308.705 67.7254 308.393 67.7254 308.393 68.0382ZM308.393 35.9612C308.393 36.4304 307.924 36.8997 308.393 37.2125C308.236 36.7433 308.861 36.274 308.393 35.9612ZM290.473 32.077C290.473 31.295 291.253 31.9206 290.473 32.077C290.161 32.2335 290.473 32.2335 290.473 32.077ZM289.381 33.1589C289.381 33.6281 289.068 33.4717 289.068 33.7845V33.9409C288.86 33.9409 288.756 33.9931 288.756 34.0973C288.756 34.2016 288.704 34.3059 288.6 34.4101C288.288 34.4101 288.756 34.8794 288.6 34.4101C288.756 34.4101 288.756 34.0973 288.756 34.0973C288.964 34.0973 289.068 34.0452 289.068 33.9409V33.7845C289.381 33.7845 289.693 33.7845 289.537 33.1589C290.005 33.1589 290.005 32.8461 290.161 32.6896C289.693 32.6896 289.693 33.0025 289.537 33.1589H289.381ZM286.741 36.5868C286.741 36.4304 287.209 36.4304 286.741 36.5868C286.429 36.5868 286.897 37.2125 286.741 36.5868ZM286.273 37.5253H286.429C286.585 37.5253 286.585 37.2125 286.429 37.2125C286.429 37.3689 286.273 37.3689 286.273 37.5253C286.273 37.6817 285.96 37.6817 286.273 37.5253ZM285.492 55.5776C292.033 50.2857 296.871 43.1169 301.695 35.9612C301.851 34.5535 302.788 33.6281 303.1 31.7512C302.788 31.1255 303.1 30.3565 302.632 30.0437C298.744 32.064 296.247 35.8048 293.438 39.0764C291.097 44.3682 287.677 49.5037 285.492 55.5776ZM283.932 39.3892C283.776 38.7635 284.556 39.3892 283.932 39.3892C283.776 39.3892 283.932 39.5456 283.932 39.3892ZM284.868 39.5456H284.712C284.088 39.702 283.62 40.9402 283.776 41.2531C283.932 40.471 284.556 40.3146 284.712 39.5456C284.868 39.702 284.868 39.5456 284.868 39.5456C285.024 39.5456 285.024 39.3892 285.024 39.2328C285.336 39.2328 285.804 38.4507 285.492 38.2943C285.492 38.6071 285.024 38.7636 285.024 39.2328C284.868 39.2328 284.868 39.3892 284.868 39.5456ZM282.996 42.1915C283.464 42.1915 283.776 41.5659 283.464 41.4095C283.464 41.8787 282.996 41.8787 282.996 42.1915C283.152 42.3479 282.839 42.3479 282.996 42.1915ZM273.646 63.5284C275.206 56.8289 278.47 51.2242 280.811 45.7759C280.811 45.9323 280.655 46.0887 280.343 46.2451C278.002 51.6934 274.426 56.9853 273.646 63.5284ZM309.173 34.8794C309.017 34.8794 309.017 35.3486 309.017 35.505C308.861 35.6614 309.017 35.6614 309.017 35.505H309.173C304.959 45.7759 297.794 53.1011 290.161 59.7876C289.693 59.7876 289.693 60.1004 289.537 59.7876C287.664 61.4951 285.492 62.5899 282.996 63.5284C280.811 68.6638 280.187 78.9478 283.776 83.1448C291.409 82.9884 295.935 77.8529 300.915 74.1121C301.695 73.7993 302.164 72.3916 303.1 72.7044C303.568 71.3098 304.66 71.3098 305.285 70.2149C305.441 70.2149 305.597 70.2149 305.441 70.3713C307.937 67.0998 311.201 64.923 313.698 61.8079C313.854 61.9643 313.854 61.8079 313.854 61.8079C314.947 60.8694 315.727 59.7876 316.663 58.6927C316.663 58.8491 316.819 58.6927 316.663 58.6927C317.131 58.2235 317.131 57.4415 317.599 57.9107C318.068 56.9722 318.692 55.8904 319.628 55.5776C319.94 54.9519 320.408 53.5573 321.189 53.7137C321.345 52.319 323.685 51.2242 324.154 49.3473C324.622 49.0344 324.31 49.5037 324.934 49.3473C324.934 48.096 326.182 47.0142 326.962 46.5449C327.587 44.681 328.991 43.899 329.927 42.3479C330.708 42.0351 331.176 41.0967 332.268 41.8787C331.8 42.8172 331.8 43.4428 331.176 44.681C331.332 44.9939 331.332 44.2118 331.644 44.3682C331.488 44.8375 331.488 45.3067 331.176 45.6195C330.864 45.7759 330.864 45.9323 330.864 46.0887C331.176 46.0887 331.176 45.9323 331.176 45.6195C331.8 45.9323 330.864 46.7144 330.708 47.0142C330.708 47.0142 330.708 47.1706 330.864 47.0142C330.864 47.1706 330.708 47.1706 330.552 47.1706C330.864 48.7216 329.615 49.6601 329.303 50.7549C328.679 54.3393 325.246 56.2032 324.167 59.7876C323.854 59.6312 324.01 60.5697 323.386 59.944C323.698 61.0258 322.762 61.1953 322.762 62.1207C318.081 68.0382 313.568 73.7993 308.432 78.9347C308.328 78.9347 308.276 79.039 308.276 79.2476C308.067 79.2476 307.911 79.2997 307.807 79.404C307.963 79.7168 308.276 79.2476 308.276 79.2476C308.432 79.2476 308.432 78.9347 308.432 78.9347C308.432 78.9347 308.744 78.9347 308.744 79.2476C303.607 84.0702 298.926 89.0623 289.732 89.6749C288.795 89.6749 288.171 89.5185 287.235 89.5185C286.455 89.2056 285.986 88.8928 285.362 88.8928C284.582 88.2672 283.49 87.9544 282.241 87.6415C280.837 86.2469 279.12 84.9956 277.885 83.2881C276.637 81.7371 275.388 80.173 274.452 78.4655C270.408 70.997 272.891 61.6515 275.7 54.1829C276.168 53.2445 277.105 52.1626 277.417 51.2242C279.445 46.2451 281.929 42.3479 284.426 38.3074C284.582 38.3074 284.582 38.6202 284.582 38.7766C284.738 38.1509 284.894 37.2255 285.674 36.5999C285.674 36.9127 285.83 36.9127 285.986 36.9127C285.986 36.7563 285.83 36.7563 285.674 36.5999C288.639 31.9337 292.371 28.1929 296.897 24.7649C297.833 25.2341 298.77 25.2341 299.55 25.5469C304.686 25.5469 309.68 26.9416 309.992 32.7027C309.836 33.6411 309.68 34.5666 309.212 35.505V34.8794H309.173Z" fill="#87AC89"/>
<path d="M343.608 31.2949C343.608 31.1385 343.764 31.2949 343.608 31.2949C343.451 31.6077 343.608 31.6077 343.608 31.2949ZM338.627 37.6816C338.783 37.5252 338.783 37.2124 339.095 37.2124C338.939 37.3688 339.095 37.6816 338.627 37.6816ZM337.847 39.7019C337.379 39.7019 337.691 39.0763 338.003 39.2327C338.003 39.3891 337.847 39.5455 337.847 39.7019ZM334.882 45.3066C334.882 45.6194 334.57 45.6194 334.414 45.6194C334.414 45.3066 334.57 45.3066 334.882 45.3066ZM325.844 47.6397C325.688 47.4833 325.688 47.1705 325.688 46.8577C326.156 46.8577 325.844 47.4833 325.844 47.6397ZM325.844 45.6194C326 44.9938 325.688 44.9938 325.844 44.681C326.156 44.681 326.156 45.6194 325.844 45.6194C326.156 45.7758 326 46.5579 325.688 46.5579C325.844 46.2451 325.844 45.9322 325.844 45.6194ZM325.688 47.7961C326.468 47.6397 324.908 48.7346 325.688 47.9525V47.7961ZM325.688 49.8164C325.22 49.66 325.532 48.8779 325.532 48.5651C326 48.7215 325.688 49.0344 325.688 49.8164ZM325.532 50.5984C325.064 50.5984 325.532 50.2856 325.532 49.9728C325.844 50.2856 325.22 50.442 325.532 50.5984ZM325.064 52.7752C324.752 52.3059 325.532 51.3675 325.064 50.7549C326 50.9113 325.064 52.1495 325.064 52.7752ZM324.908 56.9852C324.595 56.3595 324.908 56.0467 324.752 55.4341C325.22 55.4341 324.908 56.529 324.908 56.9852ZM324.752 54.9649C324.595 54.3392 324.908 54.3392 324.908 54.0264C325.064 54.0264 325.22 55.1213 324.752 54.9649ZM324.595 61.495C324.283 61.495 324.283 61.1822 324.283 61.0258C324.595 61.0258 324.595 61.1822 324.595 61.495ZM324.283 64.2973C324.283 64.4537 324.127 64.4537 323.971 64.4537C323.971 64.2973 324.127 64.2973 324.283 64.2973ZM323.971 63.5283C323.971 63.0591 324.127 62.9027 324.127 62.4334C324.595 62.1206 324.283 63.5283 323.971 63.5283ZM323.971 67.7253C323.347 67.0997 323.971 65.705 323.971 64.923C324.283 65.705 323.815 66.6304 323.971 67.7253ZM323.815 69.5892C323.659 69.5892 323.815 69.2764 323.659 69.2764C323.971 69.1199 323.971 69.2764 323.971 69.4328C323.867 69.4328 323.815 69.4849 323.815 69.5892ZM323.659 61.6514C323.347 62.1206 323.191 62.7463 323.659 63.3589C323.659 62.7332 323.971 61.9642 323.659 61.6514ZM323.347 73.9556V73.6428C323.815 73.33 323.815 74.112 323.347 73.9556ZM323.347 71.7789C323.347 71.1533 323.815 70.5276 323.659 70.0714C323.971 70.0714 323.815 70.5407 323.815 70.8535C323.971 71.3227 323.659 71.1663 323.659 71.4791C323.659 72.1048 323.815 72.8738 323.659 73.0432C323.347 72.7304 323.659 71.9484 323.347 71.7919M323.035 65.5486C323.347 65.705 322.879 66.3306 323.191 66.6435C323.035 66.1742 323.815 65.5486 323.035 65.5486ZM323.035 67.0997C322.879 67.5689 323.035 67.7253 322.879 68.4943C323.035 68.6507 322.723 69.4328 323.035 69.5892V68.3379C323.191 68.1815 323.347 67.243 323.035 67.0866M322.879 75.5067C322.723 80.3293 328.016 81.2678 330.668 81.1113C331.293 80.1729 331.137 79.7037 331.449 78.9346C331.761 78.7782 331.761 79.2475 332.385 78.9346C333.633 76.7579 333.633 73.0172 334.414 70.8405V72.7043C334.414 73.6428 334.57 72.3915 334.57 72.0787C335.038 70.2148 335.038 68.9635 335.506 67.2561C335.818 65.8614 335.818 65.2358 336.13 63.9845C336.13 64.4537 335.974 64.6101 336.286 64.7665C336.286 62.5898 337.691 59.9439 337.847 58.067C340.812 48.7215 344.856 39.2327 351.397 32.846C352.177 32.6896 352.177 31.9075 353.114 31.9075C353.27 32.5331 353.113 33.1588 353.582 33.615C353.738 33.1457 353.113 32.8329 353.582 32.6765C354.518 35.4789 354.674 38.4376 355.142 41.5528C355.766 40.6143 356.547 40.9271 356.703 39.6889C356.859 39.6889 356.703 40.1581 357.015 40.1581C357.327 40.0017 357.015 39.3761 357.327 39.3761C357.795 39.2197 357.327 40.0017 357.639 40.0017C357.795 39.5325 357.639 38.7504 357.951 38.607C357.951 38.7635 357.795 39.3891 358.263 39.2327C358.419 38.2942 358.731 35.9611 359.512 36.4303C359.512 36.2739 359.355 35.4919 359.512 35.4919C359.824 35.4919 359.512 36.2739 359.824 36.2739C359.824 35.3355 359.668 34.7098 360.136 34.0972C359.668 27.3977 350.162 25.5338 345.493 28.9618C345.493 29.1182 345.649 29.9003 345.337 29.9003C344.869 29.7438 345.649 29.1182 345.181 29.1182C343.464 30.9821 341.592 32.7026 340.044 34.7229C340.2 35.3485 339.576 35.5049 340.044 35.6613C340.044 35.5049 340.2 35.3485 340.2 35.6613H340.044C339.888 35.9742 339.888 36.5998 339.264 36.5998C338.952 36.287 339.732 35.9742 339.732 35.6613C337.235 38.1509 336.312 42.2045 334.127 44.694C334.284 42.3609 333.503 40.9532 332.567 39.5585C331.631 39.4021 330.85 39.5585 329.914 38.7765C329.446 39.2457 329.29 39.4021 328.666 38.7765C327.729 39.5585 326.481 40.0278 325.545 40.6404C325.233 41.266 326.013 41.1096 325.857 41.5788C324.921 51.3935 323.828 60.726 323.204 71.4661C322.892 71.3097 323.204 72.0917 322.892 71.9353C323.36 72.7174 323.204 75.0505 322.892 75.5197M322.879 72.7043C323.035 72.2351 322.879 73.6428 322.879 73.7992C322.723 74.112 322.879 73.0172 322.879 72.7043Z" fill="#87AC89"/>
<path d="M400.474 42.9735C400.631 42.9735 400.787 42.9735 400.787 42.8171C400.631 42.8171 400.474 42.8171 400.474 42.9735ZM398.914 43.7556C399.07 43.7556 399.382 43.7556 399.382 43.4428C399.07 43.4428 398.914 43.4428 398.914 43.7556ZM398.446 44.0684C398.602 43.912 398.758 44.0684 398.758 43.912C398.602 43.912 398.446 43.912 398.446 44.0684ZM397.835 44.0684H397.523V44.3812H397.835V44.0684ZM396.898 44.8374H396.742L396.586 44.9938C396.742 44.9938 397.054 44.9938 396.898 44.8374ZM396.274 44.9938H395.962V45.3066H396.274V44.9938ZM395.182 45.7759C395.182 45.6195 395.338 45.7759 395.182 45.7759C394.87 45.9323 395.182 45.9323 395.182 45.7759ZM390.656 47.9526C390.968 47.9526 390.968 48.109 390.968 47.9526C390.968 47.7962 390.656 47.7962 390.656 47.9526ZM388.485 49.3603C388.485 49.6731 388.329 50.2987 388.485 49.9859C388.485 49.6731 389.109 49.3603 388.485 49.3603ZM382.243 62.1207C382.087 62.1207 382.087 61.8079 382.243 61.8079H382.555C382.555 61.9643 382.243 62.1207 382.243 62.1207ZM381.15 64.923C380.994 64.923 381.15 64.6102 380.994 64.2974C381.619 63.8281 381.306 64.6102 381.15 64.923ZM379.759 67.2561H379.915C380.071 67.0997 380.071 66.6305 379.915 66.6305C379.915 66.7869 379.759 67.0997 379.759 67.2561C379.915 67.7253 379.291 67.2561 379.759 67.2561ZM375.39 55.2778C375.546 55.1213 375.702 55.2778 375.702 55.1213C375.546 55.1213 375.39 55.1213 375.39 55.2778ZM374.765 46.5579C374.765 48.7346 375.077 51.6934 375.077 53.5703C375.077 53.4139 375.077 53.2575 374.765 53.1011C374.453 53.5703 374.609 54.1959 375.077 54.5087C374.609 54.5087 374.453 54.1959 374.297 54.0395C375.077 51.7064 374.453 48.122 374.297 46.2581C374.609 46.7274 374.609 46.2581 374.765 46.571M374.297 46.2451C374.609 45.1502 374.141 44.3812 373.517 43.912C373.673 44.8504 373.829 45.6195 374.297 46.2451ZM370.877 39.5456C370.877 39.702 370.721 39.702 370.565 39.702C370.565 39.5456 370.721 39.702 370.877 39.5456ZM370.877 58.3799C370.565 58.3799 370.097 58.8491 370.565 59.0055C370.721 58.8491 370.877 58.6927 370.877 58.3799ZM367.288 70.8405C366.664 71.4661 368.068 70.3713 367.288 70.5277V70.8405ZM365.727 72.3916C365.727 72.2352 365.884 72.2352 365.727 72.3916C365.415 72.3916 365.727 72.7044 365.727 72.3916ZM364.791 72.7044V73.0172C365.103 73.0172 365.103 72.8608 365.103 72.7044C365.103 72.3916 365.259 72.7044 365.103 72.7044H364.791ZM370.565 38.7635C368.536 41.253 366.664 43.7425 365.116 46.8577C363.868 50.2857 361.371 55.2647 363.244 60.2438C366.053 61.0258 368.068 58.8491 370.097 58.9925C370.565 58.8361 370.097 58.9925 369.941 58.6797C370.721 58.3668 370.721 57.8976 371.501 57.8976C371.501 58.054 371.345 58.2104 371.501 58.2104C371.813 57.8976 371.657 57.4284 372.438 57.4284C372.438 57.4284 372.282 57.4284 372.282 57.7412C371.657 57.4284 372.282 58.2104 372.282 57.7412C373.374 57.8976 372.438 57.1156 373.218 56.9592C373.218 57.1156 372.75 57.4284 373.218 57.4284C373.374 57.4284 373.374 57.1156 373.374 56.8027C374.622 56.8027 373.686 54.626 374.778 54.4696C374.778 55.5645 374.31 55.4081 374.466 56.4899C376.183 54.3132 375.715 48.5521 375.247 45.5934C374.466 44.8113 374.622 43.1039 373.53 42.4782C373.842 43.1039 373.842 43.2603 373.53 43.8859C373.218 42.7911 372.594 41.8656 371.969 40.6144C372.594 40.9272 372.594 41.5528 372.906 41.8656C373.218 40.471 371.969 38.5941 371.033 38.4377C371.033 39.3761 372.282 39.5325 371.969 40.6144C371.501 40.3015 371.501 39.2197 370.565 38.7505M360.747 38.7635C360.747 39.2327 361.215 38.7635 361.059 38.6071L360.747 38.7635ZM362.932 73.6428C363.088 73.6428 363.244 73.33 363.4 73.33C363.244 74.1121 363.868 73.33 363.4 73.33C366.209 71.779 368.224 69.2894 369.941 66.4741C369.785 68.1815 368.536 68.9636 367.912 70.2149C367.756 70.2149 367.756 70.3713 367.756 70.3713C367.6 70.5277 367.756 70.5277 367.756 70.3713C367.86 70.3713 367.912 70.3191 367.912 70.2149H368.068C369.161 68.9636 370.097 67.2561 371.033 65.5487C370.565 65.5487 370.565 66.1743 370.097 66.1743C369.785 65.3922 369.005 65.8615 368.224 65.7051C365.259 65.7051 361.995 64.6102 360.123 63.3719C359.655 66.6435 359.342 71.4661 361.683 73.6428C362.307 73.7993 362.62 72.8608 362.932 73.6428C362.932 73.9557 362.307 73.33 362.932 73.6428ZM359.342 38.7635C359.342 39.3891 358.718 38.6071 359.342 38.6071V38.7635ZM358.25 45.6195C357.782 45.7759 357.626 45.9323 357.626 46.2451C357.938 46.2451 357.938 45.7759 358.25 45.6195ZM361.059 38.3073C359.811 38.4637 358.874 42.5043 357.782 43.7556C357.626 45.3066 355.909 47.4964 356.378 48.5782C357.938 44.2118 359.811 41.5658 361.982 37.8381C361.358 37.8381 361.514 38.6201 361.046 38.6201V38.3073H361.059ZM356.534 50.9113C355.909 50.9113 355.909 52.1626 356.378 52.319C356.378 51.8498 356.378 51.537 356.534 50.9113ZM356.378 49.8165V50.2857C357.002 49.3472 357.002 47.4833 357.782 46.5449C356.846 47.1705 356.69 48.7216 356.378 49.8165C356.065 49.3472 355.597 49.9729 356.378 49.8165ZM355.753 50.5985H355.597C355.753 50.9113 355.129 51.2241 355.597 51.3805C355.753 51.2241 355.909 50.9113 355.753 50.5985C355.909 50.5985 355.909 50.4421 355.909 50.2857C355.909 49.9729 356.065 50.2857 355.909 50.2857C355.753 50.2857 355.753 50.4421 355.753 50.5985ZM356.065 52.6188C355.753 52.4624 355.597 53.088 355.597 52.6188C355.597 52.4624 356.065 51.5239 355.597 51.5239C355.597 52.6188 355.129 53.5442 355.597 54.4827C355.597 53.7006 355.753 53.2314 356.065 52.6188ZM355.142 52.6188C354.674 52.4624 354.986 53.5572 355.142 53.088C354.986 52.7752 355.142 52.7752 355.142 52.6188ZM354.518 57.4545C354.05 57.298 354.674 56.9852 354.518 56.516C354.83 56.8288 354.518 57.1416 354.518 57.4545ZM354.05 59.7876C353.582 59.1619 354.05 58.2365 354.05 57.9237C354.674 58.3929 353.894 59.0185 354.05 59.7876ZM353.738 61.1822C353.27 61.0258 353.894 60.5566 353.738 59.9309C354.05 59.7745 353.894 61.0258 353.738 61.1822ZM353.27 68.6638C353.27 69.133 353.582 69.4459 353.738 69.4459C353.738 69.133 353.738 68.6638 353.27 68.6638ZM353.27 61.9643V61.6514C353.894 61.495 353.894 62.4335 353.27 61.9643ZM353.582 63.0591C353.582 63.6848 352.957 62.7463 353.27 62.7463C353.582 62.9027 353.27 63.0591 353.582 63.0591ZM353.114 66.4871C353.27 66.3307 353.114 66.1743 353.114 65.7051C353.582 65.5486 353.582 66.7999 353.114 66.4871ZM353.27 64.7666H353.114V64.4538H353.27V64.7666ZM353.27 63.8281L353.114 63.6717C353.27 62.8897 353.582 65.2228 353.27 63.8281ZM387.548 49.0474C387.86 48.891 387.704 49.3603 388.173 49.3603C388.329 49.0474 388.797 49.0474 388.797 48.5782C389.421 49.0474 390.045 47.7962 390.357 48.109C390.357 47.9526 390.669 47.4833 390.981 47.0141C391.294 47.0141 390.981 47.7962 391.294 47.7962C391.918 47.4833 392.386 47.1705 392.23 46.7013C393.01 46.8577 393.322 45.7628 393.79 46.2321C393.946 46.2321 393.79 46.0757 393.79 45.7628C396.131 45.2936 397.536 43.2733 399.707 43.2733C400.019 42.9605 400.487 42.1785 400.956 42.4913C401.58 41.8656 402.672 41.3964 403.765 41.0966C403.765 41.5658 403.765 41.8787 404.233 41.8787C404.077 42.0351 403.765 42.1915 403.452 42.1915C404.077 42.8171 404.545 41.5658 405.013 42.0351C404.545 42.3479 404.389 42.5043 403.765 42.5043C403.973 42.8171 403.973 43.0778 403.765 43.2864C403.608 43.4428 403.296 43.7556 402.828 43.7556C402.672 44.2248 403.452 43.912 403.296 44.2248C402.672 44.3812 402.828 44.0684 402.672 44.0684C402.516 45.1633 401.268 45.0069 400.8 45.7759C400.696 45.7759 400.592 45.828 400.487 45.9323C400.644 46.0887 400.8 45.9323 400.8 45.7759H401.268C400.487 46.2451 400.8 47.1836 399.707 47.0272C399.707 47.6528 400.644 47.0272 400.487 47.6528C399.863 47.6528 399.551 48.4348 399.083 47.9656C398.927 48.4348 398.771 48.4348 398.771 48.9041C393.946 52.8013 388.797 56.8419 382.724 59.8006V61.1953C382.568 61.1953 382.724 60.726 382.568 60.726C381.944 61.6645 381.788 63.0591 381.788 63.8412C381.319 64.3104 381.163 63.5284 381.007 64.3104C380.383 64.4668 381.007 64.936 381.007 65.5617C380.071 66.813 379.135 69.3025 378.042 71.0099C377.262 71.9484 375.234 74.7507 374.453 74.1251C374.609 74.7507 374.297 74.7507 374.297 75.0636C372.269 76.4582 369.941 77.8659 367.132 78.4915C366.664 78.8044 367.132 78.0223 366.82 78.0223C366.664 78.0223 366.664 78.3351 366.664 78.4915C363.075 78.4915 360.123 78.0223 358.406 75.8456C356.065 73.8253 353.725 71.792 352.801 68.2206C352.333 64.0237 352.957 59.6572 353.738 56.5421C353.894 58.1062 353.114 60.5957 352.957 62.9288C352.801 64.4798 353.114 66.2004 352.957 67.2952C352.957 67.7645 353.582 67.7645 353.27 68.5335C353.894 68.6899 353.27 67.7514 353.894 68.0642C353.738 69.0027 354.05 70.2409 354.518 70.8666C354.674 70.8666 354.674 71.023 354.518 70.8666C354.206 69.9281 354.05 69.0027 353.894 68.0642C352.801 64.3234 354.674 59.6572 354.83 56.0728C355.142 55.9164 354.986 55.6036 354.986 55.2908C354.83 55.4472 354.986 55.6036 354.83 56.0728C354.206 55.2908 355.454 54.6782 354.986 53.4269C354.674 54.3654 354.206 55.2908 354.05 56.3857C353.738 56.0728 354.05 54.209 354.674 53.7397C355.766 47.8222 357.639 42.5304 360.435 38.3203C360.123 37.8511 360.123 38.7896 359.499 38.7896C359.499 38.6332 359.655 38.6332 359.655 38.3203C359.811 38.3203 359.811 38.1639 359.811 38.1639C359.655 38.1639 359.655 38.3203 359.655 38.3203C359.499 38.3203 359.499 38.6332 359.342 38.6332C361.683 32.5593 371.657 33.6541 377.262 36.3001C377.262 36.9257 377.886 36.9257 378.042 37.3949C377.574 37.7077 377.574 37.8642 378.042 38.177C378.354 38.177 378.042 37.8642 378.042 37.7077C381.163 41.2921 383.647 45.6455 383.959 51.4066C384.74 50.6246 386.3 50.6246 386.612 49.6991C386.924 50.012 387.236 49.3863 387.548 49.0735" fill="#87AC89"/>
<path d="M29.3893 60.5957C28.9862 62.7333 27.9459 64.545 26.1513 66.0309C19.5192 71.0621 9.428 67.3083 7.41236 59.5269C5.6568 52.5015 5.40973 46.2321 1.91162 41.0184C15.2278 43.0127 24.6428 46.7795 28.0889 53.5964C29.3373 56.0077 29.7924 58.4451 29.3893 60.5957Z" fill="#87AC89"/>
<path d="M0.0390451 41.3704C0.0910615 41.618 0.18209 41.8657 0.325135 42.0872C2.60085 45.5022 3.3811 49.4776 4.29139 54.0917C4.66851 55.9946 5.04563 57.9628 5.55279 59.9831C6.68414 64.3365 10.0262 67.8427 14.4996 69.4068C18.947 70.9578 23.7325 70.254 27.3087 67.5429C28.1539 66.9042 28.323 65.692 27.6858 64.8579C27.0486 64.0106 25.8522 63.8412 25.0069 64.4799C22.4581 66.422 18.999 66.9042 15.761 65.7702C12.497 64.6363 10.0652 62.1077 9.27196 59.0186C8.79081 57.0765 8.41369 55.1735 8.04958 53.3357C7.37336 49.9077 6.73616 46.6101 5.43575 43.534C16.9054 45.6977 23.7715 49.2821 26.3724 54.4436C27.4257 56.4639 27.8158 58.5102 27.5037 60.2177C27.3087 61.2604 27.9849 62.2641 29.0252 62.4596C30.0655 62.6551 31.0669 61.9643 31.2619 60.9216C31.7431 58.3408 31.2359 55.4863 29.7794 52.684C26.2553 45.7107 17.4906 41.3834 2.18472 39.0894C1.43048 38.9721 0.689251 39.324 0.286123 39.9627C0.026041 40.3798 -0.0649878 40.8751 0.026041 41.3443" fill="black"/>
<path d="M12.0027 52.1235C12.0938 52.6318 12.3929 53.088 12.848 53.3878C24.3566 60.7651 28.8821 73.0954 26.2552 90.0528C26.0862 91.1086 26.8144 92.0861 27.8547 92.2425C28.8951 92.399 29.8834 91.6821 30.0394 90.6394C32.9003 72.0396 27.8157 58.406 14.9027 50.1423C14.0054 49.5688 12.822 49.8295 12.2628 50.7288C11.9897 51.159 11.9117 51.6543 11.9897 52.1105" fill="black"/>
</g>
<defs>
<clipPath id="clip0_2005_109">
<rect width="405" height="97" fill="white"/>
</clipPath>
</defs>
</svg>
